<svg width="1042" height="786" viewBox="0 0 1042 786" fill="none" xmlns="http://www.w3.org/2000/svg">
<g clip-path="url(#clip0_934_238)">
<path d="M411.133 129.294C411.083 99.6124 416.608 66.1827 438.32 44.3589C496.627 -14.2471 609.984 22.8002 611.358 108.868C611.607 125.52 605.639 144.531 599.65 160.172C615.601 166.595 591.24 210.977 581.812 218.863C580.25 220.168 573.636 219.245 572.99 221.168C570.436 227.899 565.841 243.589 561.135 249.069L561.013 255.368C561.252 263.465 561.735 275.639 563.323 283.512C568.263 283.379 572.725 283.275 577.671 283.428C584.31 285.354 598.322 310.602 606.616 314.226C610.788 316.051 614.833 317.326 619.055 318.911C643.727 328.173 670.128 330.597 695.328 337.856C700.462 339.334 704.613 342.871 709.36 345.169C712.021 346.465 719.521 348.305 721.287 350.156C726.578 355.705 732.307 364.254 735.98 370.896C743.058 383.683 747.275 395.907 751.005 409.829C754.47 422.754 755.263 432.377 757.197 445.282C762.356 479.732 770.354 517.824 768.996 552.464C767.851 581.635 761.476 611.183 752.877 638.879C745.566 662.413 738.01 685.214 714.794 697.475C707.605 701.275 704.385 701.993 697.618 704.964C696.524 725.171 694.529 733.936 678.538 748.298C673.516 752.8 668.22 756.982 662.679 760.823C668.764 765.91 677.994 778.542 680.197 786H304.911C307.065 778.792 311.487 776.044 315.134 769.823C316.843 766.913 317.441 762.131 318.041 758.727C303.286 754.698 292.846 741.354 288.244 727.201C286.875 719.702 287.798 715.825 288.973 708.255C284.165 705.752 279.601 703.392 275.367 700.217C248.262 679.873 236.987 648.484 227.066 617.435C224.044 607.978 218.51 600.698 217.315 589.902C215.475 573.287 224.853 562.939 228.519 547.759C230.323 538.459 231.824 526.28 233.313 516.568L241.665 462.765C246.666 429.388 251.747 396.141 271.175 367.959C273.826 364.113 274.079 361.035 277.621 356.622C280.132 355.779 281.561 355.264 283.682 353.671C289.674 349.022 295.257 346.606 302.468 344.354C326.593 336.822 353.102 335.353 377.262 329.133C387.848 326.365 398.14 322.576 407.994 317.817C413.133 309.928 422.078 295.178 427.654 288.348C429.489 287.713 436.88 287.352 439.12 287.219C438.916 282.421 438.771 281.214 436.596 276.959C435.388 275.494 434.19 274.019 433.002 272.537C421.434 258.071 407.869 233.785 406.608 215.215C405.593 200.277 403.486 178.354 405.115 163.831C404.348 155.416 401.208 132.617 411.133 129.294Z" fill="#FBB749"/>
<path d="M411.134 129.294C411.084 99.6124 416.61 66.1827 438.322 44.3589C496.628 -14.2471 609.985 22.8002 611.359 108.868C611.608 125.52 605.64 144.531 599.651 160.172C615.602 166.595 591.241 210.977 581.813 218.863C580.251 220.168 573.637 219.245 572.991 221.168C570.437 227.899 565.842 243.589 561.136 249.069L561.014 255.368C561.253 263.465 561.737 275.639 563.324 283.512C564.24 288.986 564.988 292.426 567.201 297.508C557.264 306.531 546.6 314.719 535.32 321.989C535.305 323.387 535.412 325.738 535.061 326.974C534.399 328.62 533.636 330.678 532.832 332.215C544.697 337.824 532.746 358.715 525.272 362.181C524.631 362.545 521.903 364.042 521.507 364.398C518.25 365.637 517.543 365.705 514.043 366.055C507.234 381.242 498.464 397.913 484.244 407.626C481.714 409.371 478.312 411.499 476.516 413.878C471.627 420.353 468.032 430.396 464.791 438.069C463.979 441.386 461.303 447.981 459.979 451.564L450.728 476.821C443.449 471.015 435.197 462.861 428.165 456.471C419.221 448.407 410.058 440.587 400.688 433.022C405.067 425.626 409.42 418.858 413.988 411.621C418.646 404.242 423.08 396.013 427.647 388.604C438.201 366.333 436.265 341.62 442.156 318.14C442.617 316.301 442.939 314.446 443.428 312.58C441.139 310.917 438.809 309.373 436.93 307.262C439.645 302.459 439.323 292.738 439.121 287.219C438.917 282.421 438.772 281.214 436.597 276.959C435.389 275.494 434.191 274.019 433.003 272.537C421.435 258.071 407.871 233.785 406.609 215.215C405.594 200.277 403.487 178.354 405.117 163.831C404.349 155.416 401.209 132.617 411.134 129.294Z" fill="#C17B55"/>
<path d="M411.136 129.294C411.086 99.6124 416.611 66.1827 438.323 44.3589C496.629 -14.2471 609.987 22.8002 611.36 108.868C611.61 125.52 605.642 144.531 599.653 160.172C594.433 161.954 594.494 158.946 590.068 165.409C587.295 169.449 584.018 173.925 581.159 177.981C582.568 156.548 585.433 135.613 583.458 113.993C582.385 102.272 582.858 89.8268 572.753 81.9856C541.112 57.4278 494.852 45.1089 455.911 57.3566C426.315 66.5688 417.632 105.65 411.478 132.15C411.345 132.366 411.211 132.582 411.078 132.798L411.136 129.294Z" fill="#EBC37E"/>
<path d="M494.513 37.3702C490.796 37.1393 482.218 33.7289 480.195 30.6023L480.426 29.6562C483.122 28.1576 484.751 29.1373 487.162 28.1626C489.721 27.1285 491.538 24.9304 494.459 24.0753L495.09 24.5741C495.249 26.2962 495.555 27.4977 494.864 29.0475C491.966 30.6676 487.232 28.9594 485.929 31.5219L486.388 32.911L487.052 33.1137C490.673 31.3066 489.605 31.8991 493.372 31.4457C497.81 30.9116 495.74 26.2619 497.918 23.6263C499.736 22.9603 498.864 22.9724 500.617 23.4201L501.204 24.4592C501.041 25.7735 500.809 26.4647 501.371 27.6558L501.013 26.5628L501.13 28.1172L500.925 27.5052L500.949 28.229C502.102 26.2963 503.008 23.8548 504.702 22.7344L505.739 22.9527C506.624 24.6638 505.055 26.7571 505.583 29.9609L506.405 30.0736C507.847 28.7958 508.557 25.7355 509.289 23.6549C512.978 27.679 518.076 32.1268 523.413 33.7566C522.217 30.6468 516.656 30.8412 517.058 24.9602L517.674 24.4541C521.571 26.8579 525.855 29.1042 524.609 34.2396C528.928 33.7206 533.578 34.5395 535.191 39.1332L534.754 39.8251C531.609 39.9328 527.453 37.5522 524.776 36.3523C524.41 36.1886 522.126 38.6563 520.467 38.2422C520.594 37.8238 520.788 37.0497 520.971 36.6962C520.065 35.9154 514.148 32.9026 512.632 31.8153C511.349 30.8944 508.646 30.7633 507.006 31.3102L506.364 32.0435C509.452 35.7868 513.415 34.1629 515.71 36.2531C515.496 37.5464 513.899 38.7936 512.881 38.8922C509.793 39.1925 507.065 47.0551 505.351 47.2585C502.151 43.5222 505.014 35.8152 503.251 34.3192C501.832 36.3145 501.503 36.6831 499.166 37.4393L498.801 38.1377C500.438 40.3475 500.789 40.3792 500.59 42.7233C499.429 44.8443 496.379 44.2975 496.052 46.2207C495.873 47.2731 497.026 48.8731 496.144 50.6845C495.601 50.4132 494.541 49.7221 494.225 49.2323C492.369 46.361 486.957 48.0443 485.471 46.6895C486.539 45.7452 486.659 45.8348 488.033 45.5779C491.229 44.5203 493.713 44.1704 495.305 41.269C495.615 39.3091 495.48 39.2146 494.513 37.3702Z" fill="#FBB749"/>
<path d="M568.317 63.8184C570.22 64.585 570.698 66.1764 571.827 68.0567C579.785 70.6049 575.409 70.9839 579.78 74.5512C581.566 74.5431 583.672 72.9126 585.326 71.8951C586.231 74.0455 587.264 75.7091 586.918 77.8066C585.107 77.9399 584.832 77.4286 583.041 76.5073L582.588 76.8955C583.082 77.625 583.306 77.9628 583.865 78.6496C584.435 80.8545 585.341 86.2944 582.665 87.2239C582.278 84.3174 582.99 82.2337 581.891 79.7144C580.222 78.7005 580.823 78.9971 578.294 79.5226C575.308 78.4476 576.849 75.3169 575.252 73.8278C570.337 69.24 567.833 71.4489 568.317 63.8184Z" fill="#FBB749"/>
<path d="M564.585 56.8047C567.053 57.1659 568.64 57.7214 570.197 59.6633C570.508 61.4749 570.676 60.9026 569.958 62.3057C568.457 62.7239 566.468 61.5395 564.255 61.1351L563.888 61.6921C565.089 63.3969 565.349 63.6701 566.051 65.5906C565.598 67.7232 563.415 69.5206 561.4 68.8776L561.695 67.4979C558.877 59.6282 556.119 65.0335 551.688 61.5176C551.143 60.3145 550.838 59.9573 551.108 58.6682C553.031 58.2683 557.864 60.0916 560.032 60.7617C561.517 59.5793 563.14 58.0745 564.585 56.8047Z" fill="#FBB749"/>
<path d="M534.486 41.6451C536.465 41.6284 537.422 41.9746 538.714 43.3587C538.907 45.3672 538.47 45.5331 537.585 47.5314L538.037 47.6463C540.062 48.1751 541.762 48.409 542.734 50.0612C541.986 51.5231 541.268 51.5557 539.635 52.4755C537.798 53.203 535.763 54.3664 533.993 55.3046L533.067 53.7315C529.866 48.3762 530.716 46.1199 534.486 41.6451Z" fill="#FBB749"/>
<path d="M543.625 48.5254C548.306 48.8641 553.012 51.9174 556.07 55.2542L555.978 56.5616C547.166 55.6021 543.915 59.1679 543.625 48.5254Z" fill="#FBB749"/>
<path d="M467.329 33.3281C469.235 34.5822 469.562 35.6538 472.164 37.1315L471.173 35.9255C472.53 37.052 474.194 38.009 473.377 39.8583L472.518 38.3015L471.902 38.1984L472.471 40.0668L472.06 40.3759C470.511 38.2948 468.917 35.2322 466.728 33.9708C465.388 35.4197 466.027 36.3841 464.851 37.8636L464.676 36.636C462.338 36.2852 459.585 38.7667 456.293 37.7892C455.369 36.3229 455.489 37.0814 455.829 35.4549C459.549 32.3162 462.153 36.2056 467.329 33.3281Z" fill="#FBB749"/>
<path d="M479.976 39.0586L480.966 39.8866C479.561 44.5196 481.842 47.2995 478.231 50.4947C474.424 46.0725 474.515 41.8774 479.976 39.0586Z" fill="#FBB749"/>
<path d="M440.327 43.9941C442.845 44.0691 443.179 43.9506 444.356 46.2046C444.531 49.3741 443.244 50.8572 441.341 53.1912C440.421 53.5717 440.663 53.4338 439.576 53.4226L438.96 52.7033C438.638 50.1752 439.491 46.3955 440.327 43.9941Z" fill="#FBB749"/>
<path d="M449.933 46.6934C451.478 46.7404 452.792 46.8014 453.551 48.2078C452.646 50.9323 448.957 51.207 447.624 52.8431L447.383 54.4166L446.459 54.0981C444.592 50.2026 447.082 48.6332 449.933 46.6934Z" fill="#FBB749"/>
<path d="M450.618 39.4238C452.281 39.544 452.918 39.8155 453.889 41.0701L453.657 42.2544C452.249 44.268 450.596 44.6916 448.336 45.5961C447.457 46.143 447.79 45.9534 446.643 46.0526C446.197 45.1582 446.378 45.3607 446.446 44.1737C447.682 41.5785 448.381 41.195 450.618 39.4238Z" fill="#FBB749"/>
<path d="M468.248 43.7498C469.297 43.6696 470.056 43.7433 471.093 43.8117C472.722 44.9406 472.421 44.3889 472.999 45.9945C472.226 47.5766 472.361 47.1213 470.494 48.1644C468.422 48.1758 464.965 48.2717 465.032 45.4061C466.508 43.9261 466.011 44.3881 468.248 43.7498Z" fill="#FBB749"/>
<path d="M522.899 23.8555C528.038 24.451 530.124 26.8302 528.018 31.9057C526.298 28.8808 524.288 27.6105 522.273 24.9071L522.899 23.8555Z" fill="#FBB749"/>
<path d="M512.782 39.8027C514.695 40.1281 515.219 40.7544 516.16 42.3175C516.227 44.8101 516.415 43.81 515.031 46.2458C513.51 45.9977 512.98 45.2329 512.212 44.0234C511.744 41.9904 511.897 41.718 512.782 39.8027Z" fill="#FBB749"/>
<path d="M473.944 27.5188L475.59 27.5078L475.847 28.0001C474.079 29.5165 471.521 30.4421 469.337 31.4083C468.763 31.9229 469.094 31.7068 468.03 31.7135C467.284 28.505 471.637 28.0041 473.944 27.5188Z" fill="#FBB749"/>
<path d="M540.836 43.5488C542.652 43.6474 542.937 43.6611 544.611 44.3584C545.868 45.8614 545.496 45.1934 545.812 47.2406C543.904 47.3487 543.268 47.5633 541.645 46.7373C540.612 45.0744 540.917 45.6941 540.836 43.5488Z" fill="#FBB749"/>
<path d="M534.563 30.5034C536.929 30.3978 537.346 30.3266 539.498 31.2424L539.483 31.8563L538.226 31.6124C536.038 32.235 536.038 32.7018 533.54 32.9611L533.367 32.2578L534.563 30.5034Z" fill="#FBB749"/>
<path d="M559.693 49.5762C560.39 49.7174 561.006 49.9134 561.687 50.1108L561.565 50.8462L558.095 52.8681L558.06 53.5238L557.587 53.7645L557.281 52.8172C557.963 50.6455 557.765 51.3123 559.693 49.5762Z" fill="#FBB749"/>
<path d="M440.632 277.462C442.238 278.729 442.32 279.226 444.133 279.395C444.811 278.422 445.121 277.967 445.7 276.9C451.461 283.87 444.085 327.781 442.427 337.733C439.425 355.748 440.134 373.685 428.414 388.674L427.648 388.603C438.203 366.332 436.266 341.619 442.158 318.139C442.619 316.3 442.941 314.445 443.43 312.579C441.141 310.917 438.81 309.372 436.932 307.261C439.647 302.458 439.325 292.738 439.123 287.218C438.919 282.421 438.774 281.213 436.599 276.959L439.411 276.418L440.632 277.462Z" fill="#995D3F"/>
<path d="M521.556 349.522C525.371 348.837 528.256 348.156 531.986 347.195C529.564 350.651 522.736 356.276 522.634 359.294C523.764 360.312 524.145 360.682 525.066 361.899L525.275 362.181C524.634 362.545 521.907 364.042 521.51 364.398C518.254 365.637 517.546 365.705 514.046 366.055C507.237 381.242 498.467 397.913 484.248 407.626C481.717 409.371 478.315 411.499 476.52 413.878C471.63 420.353 468.036 430.396 464.795 438.069C462.079 433.313 471.026 413.669 474.478 410.843C490.041 398.109 502.253 386.194 510.032 367.106C510.861 365.068 513.827 359.245 515.17 357.311C518.671 356.736 519.841 352.645 521.556 349.522Z" fill="#995D3F"/>
<path d="M405.118 163.83C404.351 155.416 401.211 132.616 411.135 129.293L411.078 132.797C410.509 134.755 410.506 136.459 410.265 138.47C409.244 147.015 406.673 155.443 405.118 163.83Z" fill="#995D3F"/>
<path d="M539.641 269.065C541.895 266.969 545.721 265.213 548.265 262.975C553.113 258.7 556.889 253.846 561.142 249.068L561.02 255.368L560.231 255.068C557.143 257.398 547.858 272.543 545.502 273.386L544.199 271.443C542.276 270.013 541.905 269.871 539.641 269.065Z" fill="#995D3F"/>
<path d="M532.836 332.214C529.402 332.332 516.046 332.804 513.828 331.113C514.754 330.432 531.783 326.79 534.246 326.293L535.065 326.973C534.404 328.618 533.64 330.676 532.836 332.214Z" fill="#995D3F"/>
<path d="M439.412 276.417C437.358 273.915 435.404 271.539 437.772 268.407C441.049 267.124 442.531 268.813 444.726 271.163C444.377 273.283 444.063 274.682 444.207 276.86L443.513 278.1L440.632 277.461L439.412 276.417Z" fill="#CF9473"/>
<path d="M539.636 269.064C541.9 269.87 542.271 270.012 544.194 271.442C541.421 278.637 532.65 274.483 532.823 269.902C534.125 268.915 537.524 269.269 539.636 269.064Z" fill="#CF9473"/>
<path d="M437.016 221.632C451.729 220.559 456.425 208.098 472.298 218.043C485.362 213.503 493.717 223.944 503.77 230.376C505.93 231.757 508.152 232.93 510.366 234.233C510.336 234.475 510.3 234.716 510.27 234.957C496.242 243.488 488.878 252.811 470.037 250.547C457.577 249.05 450.3 244.332 443.987 233.223C441.823 229.415 439.784 224.893 437.016 221.632Z" fill="#995D3F"/>
<path d="M510.273 234.957C498.676 235.074 493.808 234.144 482.8 231.865C474.219 231.729 467.27 228.996 459.252 227.284C452.219 225.781 447.269 227.322 439.625 223.17C447.376 226.017 451.395 225.009 458.838 226.114C464.659 227.717 472.361 227.576 477.966 228.913C489.993 231.779 497.767 233.852 510.37 234.234C510.339 234.475 510.303 234.716 510.273 234.957Z" fill="#794B35"/>
<path d="M471.795 237.566C475.765 237.439 485.836 236.812 487.186 241.341C486.379 243.251 486.371 242.806 484.443 244.256C480.168 245.415 472.017 246.218 470.164 241.131C470.304 239.237 470.543 239.125 471.795 237.566Z" fill="#B36F4C"/>
<path d="M457.268 235.072C461.04 234.807 467.99 236.626 468.062 241.158C466.945 242.765 467.493 242.24 465.484 243.018C461.995 242.627 455.289 241.341 454.445 237.374C455.32 235.74 455.315 236.145 457.268 235.072Z" fill="#B36F4C"/>
<path d="M506.93 158.559C507.405 155.827 508.122 154.184 509.762 151.909C518.086 140.359 538.203 140.31 546.222 152.261C547.565 154.268 548.684 157.349 549.437 159.671L549.926 160.272C548.817 161.031 546.461 160.876 544.991 160.917C537.033 163.069 530.704 164.781 522.492 162.074C515.537 161.577 516.906 160.046 513.146 156.028C512.525 155.364 510.103 158.563 507.238 159.148L506.93 158.559Z" fill="#995D3F"/>
<path d="M506.93 158.559C515.308 151.355 514.784 144.764 528.999 147.281L528.379 149.381C529.101 156.395 528.979 158.341 522.492 162.074C515.537 161.577 516.906 160.046 513.146 156.028C512.525 155.364 510.103 158.562 507.238 159.148L506.93 158.559Z" fill="#141414"/>
<path d="M528.379 149.381C537.125 152.64 538.478 154.345 544.991 160.916C537.033 163.068 530.704 164.781 522.492 162.074C528.979 158.341 529.101 156.395 528.379 149.381Z" fill="#FCFBFB"/>
<path d="M528.996 147.279C541.858 150.031 542.173 156.354 549.434 159.67L549.922 160.27C548.813 161.029 546.457 160.874 544.987 160.915C538.474 154.344 537.121 152.639 528.375 149.38L528.996 147.279Z" fill="#141414"/>
<path d="M424.477 135.904L424.685 135.042C426.758 133.818 427.475 132.059 429.176 130.664C443.564 118.86 463.525 132.785 463.583 149.723L464.098 150.922L463.755 151.384C462.737 150.777 462.664 150.808 461.912 149.919C455.843 149.406 443.975 147.795 438.79 145.364C432.483 143.022 434.291 139.652 431.786 136.663C430.345 137.493 430.061 137.605 428.472 138.125C426.559 137.858 425.977 137.132 424.477 135.904Z" fill="#995D3F"/>
<path d="M424.477 135.905C434.975 133.006 433.334 125.335 447.997 131.722L447.259 133.671C448.123 140.576 445.23 143.817 438.79 145.365C432.483 143.022 434.291 139.653 431.786 136.663C430.345 137.493 430.061 137.606 428.472 138.126C426.559 137.858 425.977 137.133 424.477 135.905Z" fill="#141414"/>
<path d="M447.257 133.67C455.578 138.552 456.99 141.609 461.91 149.918C455.842 149.406 443.974 147.795 438.789 145.364C445.228 143.816 448.121 140.575 447.257 133.67Z" fill="#FCFBFB"/>
<path d="M447.996 131.723C458.522 136.221 458.255 142.083 463.582 149.724L464.097 150.923L463.754 151.385C462.736 150.778 462.663 150.809 461.911 149.92C456.99 141.61 455.579 138.553 447.258 133.671L447.996 131.723Z" fill="#141414"/>
<path d="M531.927 279.021C532.705 278.853 540.785 278.761 542.138 278.723C538.562 282.789 524.112 291.355 523.466 295.886C515.844 296.361 508.226 296.906 500.613 297.522C495.281 297.803 492.169 297.71 486.977 297.279C501.08 295.029 502.908 287.035 511.525 280.341L511.962 280.008C517.594 280.335 526.096 279.485 531.927 279.021Z" fill="#995D3F"/>
<path d="M535.895 120.786C553.469 119.413 556.959 125.055 561.65 141.408C559.651 138.992 557.6 136.613 555.509 134.275C551.286 129.624 548.671 127.973 542.382 127.648C533.173 127.597 528.233 130.207 519.568 132.347C516.49 133.106 511.529 133.494 508.211 133.865C509.464 131.04 510.853 128.179 512.17 125.376C521.339 122.507 526.457 121.563 535.895 120.786Z" fill="#995D3F"/>
<path d="M504.599 264.603C506.858 264.435 511.122 264.701 513.259 265.498L513.488 266.253C510.878 267.166 506.904 266.541 504.084 266.732C498.894 267.085 468.747 290.587 464.944 295.487C458.173 304.213 454.295 314.861 446.778 323.019C448.86 316.294 454.44 307.408 457.95 301.129C459.015 299.455 460.166 297.382 461.187 295.645C460.737 285.124 457.108 274.902 447.858 268.108C445.816 266.608 442.826 267.629 441.352 266.272L442.131 265.672C453.211 264.884 459.425 276.189 462.806 284.867L471.406 285.965C482.321 278.449 491.182 268.42 504.599 264.603Z" fill="#995D3F"/>
<path d="M577.492 205.068C582.219 197.126 584.508 194.362 583.399 185.656C582.982 182.388 594.282 167.935 599.07 168.379C603.588 171.775 598.159 182.129 596.073 185.804C595.213 187.632 594.552 188.919 593.987 190.878C590.141 200.679 586.666 200.478 577.492 205.068Z" fill="#995D3F"/>
<path d="M593.986 190.878C593.635 188.806 592.597 184.175 593.569 182.5C594.948 183.421 595.238 184.3 596.072 185.805C595.212 187.633 594.551 188.92 593.986 190.878Z" fill="#B36F4C"/>
<path d="M451.414 118.137L451.911 118.359C455.804 120.121 464.046 126.505 467.708 125.295C468.095 126.276 467.356 126.012 467.645 126.586C470.658 132.56 474.373 140.117 477.252 145.937C475.591 154.945 471.979 163.654 468.793 172.271C469.3 166.311 471.227 159.849 470.801 153.861C469.753 139.148 455.881 131.542 451.414 118.137Z" fill="#B36F4C"/>
<path d="M455.918 181.936L456.14 182C457.11 183.142 453.617 185.024 453.531 189.682C455.416 193.844 456.939 190.149 461.318 191.97C464.687 193.371 467.229 197.538 470.305 198.833C475.759 201.176 481.989 197.325 487.248 197.411C494.969 197.538 498.451 202.354 501.442 192.289C502.264 192.992 503.037 195.463 503.48 196.61C502.4 202.047 500.592 203.191 495.133 203.744C490.694 204.193 486.254 204.233 481.801 204.728C478.443 205.101 474.543 205.524 471.237 204.882C468.468 203.949 466.452 201.649 463.852 200.43C459.073 198.19 450.667 196.535 451.256 189.7C451.517 186.666 454.078 184.05 455.918 181.936Z" fill="#995D3F"/>
<path d="M484.821 200.114C487.308 199.746 491.597 199.249 493.436 201.233L492.92 202.008C490.618 202.065 485.912 202.522 484.242 201.247L484.821 200.114Z" fill="#794B35"/>
<path d="M458.508 194.353C462.022 194.242 463.794 195.47 465.207 198.571C462.011 197.942 459.701 197.561 458.508 194.353Z" fill="#794B35"/>
<path d="M434.807 104.262C447.831 103.978 457.384 111.434 467.55 119.218L467.711 125.295C464.049 126.506 455.807 120.122 451.914 118.359L451.417 118.137C441.497 109.421 433.469 109.472 423.359 117.613C426.565 112.608 429.734 107.594 434.807 104.262Z" fill="#995D3F"/>
<path d="M527.619 308.059L528.942 308.821C528.784 310.527 528.759 311.026 528.275 312.649C526.581 313.832 505.376 314.147 503.289 312.978L504.324 312.471L503.877 313.164C505.527 311.414 523.666 309.011 527.619 308.059Z" fill="#995D3F"/>
<path d="M514.372 228.143L514.652 225.162C518.692 232.383 516.484 234.826 513.273 241.798C513.299 238.748 514.51 229.263 514.372 228.143Z" fill="#995D3F"/>
<path d="M434.991 213.445L435.471 213.65C435.832 214.619 434.314 222.743 434.069 224.759L433.061 224.331C430.812 221.468 432.499 215.95 434.991 213.445Z" fill="#B36F4C"/>
<path d="M527.617 308.059C528.675 305.447 527.79 302.521 527.148 299.885L528.008 299.928C529.596 302.024 529.652 306.389 528.939 308.821L527.617 308.059Z" fill="#B36F4C"/>
<path d="M514.378 228.142C513.294 224.992 512.302 221.811 511.406 218.602C512.617 220.706 514.011 222.84 514.657 225.162L514.378 228.142Z" fill="#B36F4C"/>
<path d="M520.531 776.624C525.202 776.217 535.047 773.76 540.033 772.737C550.84 770.519 561.896 767.996 572.652 765.442C580.421 763.839 593.502 757.261 601.144 758.472C618.259 761.179 632.653 773.287 651.27 766.118C654.846 764.745 658.968 762.542 662.682 760.822C668.767 765.91 677.996 778.542 680.199 786H304.914C307.067 778.791 311.49 776.044 315.137 769.822C316.846 766.912 317.444 762.13 318.043 758.726C324.744 757.912 334.352 759.51 341.266 760.415C345.196 761.382 349.091 762.008 353.025 762.806C358.854 763.997 364.883 766.103 370.707 767.1C418.233 775.23 466.348 782.566 514.639 777.148C516.558 776.929 518.618 776.898 520.531 776.624Z" fill="#141414"/>
<path d="M341.266 760.415C412.147 748.505 482.57 734.576 553.475 722.86C576.91 718.988 600.716 713.377 624.599 712.4C636.291 711.922 648.028 712.695 659.705 711.332C670.14 710.416 682.219 707.237 692.12 706.479C633.472 727.021 575.383 730.562 514.878 740.452L488.547 744.751C483.639 745.55 476.79 746.455 472.084 747.666C482.749 754.397 493.525 760.944 504.41 767.313C509.811 770.483 515.316 773.154 520.531 776.623C518.618 776.898 516.557 776.929 514.639 777.147C466.348 782.565 418.232 775.229 370.707 767.1C364.883 766.103 358.853 763.996 353.025 762.806C349.091 762.007 345.196 761.382 341.266 760.415Z" fill="#1C506D"/>
<path d="M414.438 651.989C423.655 650.768 433.59 647.726 442.539 646.779C442.113 653.032 442.422 657.687 443.04 663.959C440.525 665.877 441.38 695.425 441.409 700.197C427.623 698.742 411.547 693.838 397.158 693.563C381.408 693.258 371.437 707.691 355.404 700.853C350.01 698.554 346.648 695.547 341.695 692.886C357.661 678.698 367.239 666.493 381.513 652.06C395.193 658.221 399.05 657.468 414.438 651.989Z" fill="#C17B55"/>
<path d="M459.116 549.076C456.942 555.156 453.713 561.194 451.051 567.106C438.407 595.173 427.513 624.115 414.434 651.989C399.045 657.468 395.188 658.221 381.508 652.06C400.486 630.205 417.189 610.201 434.154 586.529C443.213 573.887 450.624 561.342 459.116 549.076Z" fill="#1C506D"/>
<path d="M441.405 700.196C441.376 695.424 440.52 665.877 443.035 663.959C444.431 678.122 447.923 694.198 449.967 708.621C434.126 708.123 418.449 704.811 402.655 704.093C390.668 703.554 379.075 706.652 367.215 706.047C357.887 705.569 348.708 701.056 339.239 703.788C334.154 705.253 328.652 708.672 324.114 711.536C314.427 717.661 299.842 725.725 288.245 727.2C286.876 719.701 287.799 715.825 288.974 708.255C315.295 715.83 321.712 709.435 341.691 692.886C346.643 695.547 350.006 698.553 355.399 700.853C371.432 707.69 381.403 693.257 397.154 693.562C411.542 693.837 427.618 698.741 441.405 700.196Z" fill="#955F3F"/>
<path d="M514.048 366.055C517.549 365.705 518.256 365.637 521.512 364.398C519.299 369.614 515.33 384.052 513.723 389.927C508.56 408.79 501.111 432.091 497.701 451.167C492.749 436.507 488.959 422.088 484.25 407.626C498.47 397.913 507.239 381.242 514.048 366.055Z" fill="#C17B55"/>
<path d="M439.122 287.219C439.324 292.739 439.646 302.459 436.931 307.262C432.366 300.961 430.474 295.49 427.656 288.348C429.491 287.713 436.882 287.352 439.122 287.219Z" fill="#1C506D"/>
<path d="M563.328 283.512C568.268 283.379 572.731 283.274 577.676 283.428L567.205 297.508C564.992 292.426 564.244 288.986 563.328 283.512Z" fill="#1C506D"/>
<path d="M648.011 401.912C648.357 399.521 649.237 391.18 649.893 389.477C650.341 393.712 650.26 415.068 649.802 418.9C650.295 422.617 649.664 441.039 649.603 445.56L648.957 491.622C648.815 501.607 648.453 512.446 648.87 522.356L660.089 474.692C662.959 462.955 668.179 440.035 673.028 429.968C677.261 421.172 698.02 405.932 706.918 400.534L707.692 401.383C694.855 412.213 675.724 430.222 671.639 447.165C668.581 459.833 667.345 475.618 664.266 488.372C671.349 475.959 680.181 462.655 689.691 451.988C679.586 469.716 673.75 483.138 666.744 502.417C669.375 499.914 675.251 491.534 677.887 488.204C683.748 480.808 688.887 475.767 695.974 469.474C681.993 490.433 668.205 520.341 661 544.313C658.232 553.506 655.637 566.682 653.801 576.348C660.542 568.783 668.993 562.943 677.358 557.332C692.942 546.872 708.109 546.76 726.023 547.655C705.183 552.855 674.493 563.782 659.957 579.731L658.375 581.085C655.205 582.794 649.761 584.417 646.052 586.111C639.254 589.219 632.889 592.445 626.245 595.858C622.23 593.223 621.147 592.913 616.354 592.429C608.524 595.39 605.191 597.68 598.567 602.996C588.121 611.385 580.194 626.428 567.21 630.656C562.31 632.253 548.537 627.7 546.533 622.445C552.857 621.707 562.249 627.441 569.856 623.62C576.816 620.13 582.255 614.682 587.017 608.663C587.292 608.317 587.556 607.976 587.826 607.625C575.412 611.293 560.82 615.791 548.181 618.456C529.539 622.384 511.38 626.973 492.908 631.714L491.93 631.139L491.676 629.862C492.262 628.128 490.627 621.672 490.026 619.606C475.22 568.676 489.822 517.126 498.946 466.941L499.497 466.962C499.675 468.631 498.425 477.615 498.225 480.353C497.559 490.831 497.046 501.318 496.684 511.81C495.746 550.581 495.301 589.362 495.349 628.143C502.387 626.149 508.011 623.646 514.606 621.565C528.852 617.063 543.175 611.726 557.38 607.34C569.479 603.713 581.619 600.228 593.794 596.886C600.149 595.161 607.236 593.691 613.357 591.473C641.361 580.861 644.805 551.145 647.97 525.403C649.608 512.064 635.52 491.587 636.446 480.974C638.73 454.795 644.836 428.164 648.011 401.912Z" fill="#1C506D"/>
<path d="M648.016 401.912C648.362 399.521 649.242 391.18 649.898 389.477C650.346 393.712 650.264 415.068 649.807 418.9C648.977 414.135 650.229 407.49 649.247 402.569L648.016 401.912Z" fill="#295666"/>
<path d="M339.274 489.697C339.049 481.453 336.445 385.28 336.686 384.77L336.885 385.333L336.429 385.395L336.95 385.591L336.409 385.779L336.399 386.035L337.097 386.269C339.606 402.649 342.551 418.34 345.424 434.73C347.357 447.046 350.581 460.308 350.369 472.768C350.297 476.972 345.429 487.497 342.718 490.814C336.291 498.678 330.445 507.423 324.327 515.453C321.072 519.726 313.681 524.208 309.846 528.105C303.204 533.523 297.477 538.666 291.336 544.608C291.433 543.433 296.977 537.069 298.249 535.461C306.921 524.473 315.403 513.331 323.691 502.052C319.992 488.927 317.352 475.671 314.265 462.388L299.455 397.855L301.701 397.789C305.576 408.296 309.727 422.324 312.996 433.252C318.928 453.083 326.056 474.497 331.211 494.397C334.409 491.319 334.965 490.666 339.274 489.697Z" fill="#1C506D"/>
<path d="M286.308 548.591L287.251 548.332C288.172 549.161 287.204 549.741 286.762 551.156C283.237 562.826 283.608 576.023 284.222 588.136C284.725 598.087 285.147 609.452 286.818 619.255C275.788 595.197 269.006 582.916 283.164 557.561C283.647 556.446 283.647 556.243 283.868 555.083L283.238 554.834C271.483 558.868 245.439 573.087 234.922 579.731C250.094 553.776 258.072 553.14 286.308 548.591Z" fill="#1C506D"/>
<path d="M626.281 597.156C636.89 614.306 644.684 631.43 657.867 647.72C668.048 660.296 676.784 667.83 688.201 678.788C680.935 678.01 665.01 671.213 659.302 666.614C656.05 663.994 652.896 659.512 650.891 656.007C645.432 646.433 627.39 605.784 626.281 597.156Z" fill="#1C506D"/>
<path d="M674.154 577.992C687.301 577.117 696.052 574.09 706.014 583.705C714.012 591.423 724.295 602.696 727.027 613.497C701.933 602.829 694.668 593.692 673.93 578.989L674.154 577.992Z" fill="#1C506D"/>
<path d="M447.602 643.803C451.565 642.002 488.193 630.255 491.681 629.863L491.935 631.14L492.913 631.715C482.069 635.403 470.547 637.698 459.59 641.03C455.407 642.302 451.907 643.09 447.602 643.803Z" fill="#295666"/>
<path d="M299.456 397.855C298.764 394.38 293.218 375.007 293.764 373.383C294.238 375.615 295.388 377.914 296.075 380.199C297.855 386.121 299.695 391.94 301.702 397.789L299.456 397.855Z" fill="#295666"/>
<path d="M659.957 579.732C661.621 580.521 669.986 577.845 674.147 577.992L673.924 578.989C669.538 579.646 662.593 580.872 658.375 581.085L659.957 579.732Z" fill="#7F8064"/>
<path d="M706.922 400.536C709.629 398.753 712.793 396.494 715.744 395.291C714.035 397.249 709.98 399.862 707.695 401.385L706.922 400.536Z" fill="#7F8064"/>
</g>
<defs>
<clipPath id="clip0_934_238">
<rect width="1042" height="786" fill="white"/>
</clipPath>
</defs>
</svg>

