<svg width="2367" height="1797" viewBox="0 0 2367 1797" fill="none" xmlns="http://www.w3.org/2000/svg">
<path d="M1162.65 1098.69C1171.71 1102.79 1221.11 1333.34 1229.82 1338.53L1230.76 1386.39C1230.38 1392.1 1230.07 1396.76 1229.82 1399.16C1227.52 1421.13 1224.37 1444.41 1222.51 1466.32C1216.81 1541.03 1212.01 1615.81 1208.13 1690.63C1206.26 1724.97 1202.62 1763.3 1202.28 1797H840.115H835.692H530.749C529.628 1722.65 530.958 1646.1 530.716 1571.43C508.186 1577.92 451.638 1581.75 427.256 1583C419.482 1584.61 389.852 1583.01 381.572 1582.58C331.747 1579.97 280.779 1574.22 233.14 1559.15C224.98 1556.58 212.619 1554.06 206.349 1548.67C204.311 1542.66 212.957 1519.45 215.296 1511.85C220.57 1494.59 225.34 1477.21 229.598 1459.69C231.074 1453.34 239.352 1421.73 235.508 1416.11C233.642 1413.53 222.146 1406.47 221.698 1403.89C218.12 1383.32 215.702 1349.27 220.672 1329.49C212.198 1311.92 215.646 1305.88 215.663 1287.34C215.678 1271.23 212.159 1255.28 220.829 1240.04C224.905 1232.88 236.94 1228.11 239.865 1219.38C239.24 1212.64 237.643 1201.93 234.336 1196.04C223.388 1191.51 195.894 1209 188.357 1199.39C187.94 1193.75 191.263 1187.78 193.39 1182.64C212.35 1136.71 266.498 1138.01 273.445 1128.25C266.819 1113.23 251 1128.82 239.672 1129.61C220.176 1130.97 205.837 1117.1 187.088 1116.88C171.497 1116.71 156.462 1124.72 140.522 1118.71C128.854 1114.46 112.164 1107.51 106.865 1095.9C96.7554 1073.75 113.226 1051.05 120.167 1031.72L120.623 1030.43C94.6419 1028.08 48.7929 1022.69 27.5009 1007.55C19.6918 1002 7.83966 981.042 16.6683 973.145C18.0817 971.881 19.4794 970.981 21.5707 971.07C98.7104 974.351 176.619 978.817 253.241 988.328C271.729 990.632 290.488 994.708 308.644 998.472C317.204 1000.25 325.662 1003.28 334.259 1004.57C348.254 1001.84 346.998 1000.63 360.912 1004.42C371.93 1004.73 384.339 1011.06 395.56 1010.05C401.559 1009.5 413.106 1003.95 419.129 1005.99C442.469 1013.88 629.076 1041.43 636.656 1047.78C649.333 1050.39 666.329 1052.33 679.221 1050.47C679.827 1050.45 685.63 1050.13 685.963 1050.17C696.537 1051.3 715.071 1043.56 723.307 1043.22L725.232 1043.34C729.526 1038.47 758.286 1035.86 768.453 1031.02C774.153 1023.25 771.816 1004.76 771.939 994.787C772.254 969.197 770.069 943.024 772.98 917.537C774.99 919.054 774.661 919.231 776.883 919.808C781.51 920.15 792.436 922.435 794.572 922.185L800.102 923.774C804.133 924.636 821.659 927.417 825.292 926.993C843.376 931.665 874.826 931.225 893.377 929.245C899.108 929.766 918.524 924.781 924.141 923.094C947.885 915.96 965.816 903.704 976.795 881.524C979.391 876.279 980.651 870.328 982.857 866.092L984.191 868.977L985.441 868.653C988.726 884.479 987.101 904.191 987.723 920.371C989.108 956.398 985.542 999.934 988.14 1035.38C996.001 1038.09 1009.92 1042.57 1017.19 1045.9C1022.3 1048.68 1032.48 1051.04 1039.21 1054.01C1045.7 1056.88 1056.07 1061.78 1062.22 1063.92C1095.81 1075.62 1130.23 1084.01 1162.65 1098.69Z" fill="#050505"/>
<path d="M1778.39 590.647L1779.09 589.806C1801.37 559.627 1820.56 543.836 1859.94 553.527C1865.25 554.833 1870.13 557.589 1875.59 558.304C1888.39 560.535 1906.09 556.597 1918.21 558.72C1942.64 563.004 1964.23 579.459 1984.69 592.188C1992.2 596.906 2000.99 600.445 2008.51 605.27C2011.65 607.28 2009.49 612.615 2010.19 613.568C2014.5 619.463 2020.21 624.703 2025.09 630.176C2039.97 648.574 2054.34 674.868 2060.57 697.22C2054.47 714.049 2044.99 738.356 2044.16 755.869C2092.46 764.944 2076.11 835.089 2027.96 852.464C2027.77 860.322 2025.74 892.167 2026.67 896.878C2030.93 918.243 2023.96 1051.34 2030.82 1059.86C2061.69 1076.45 2093.96 1089.12 2126.5 1102.01C2142.12 1108.21 2158.81 1116.13 2174.52 1122.77C2195.94 1131.82 2226.69 1144.19 2245.56 1157.63C2269.3 1174.54 2287.58 1196.13 2295.92 1223.98C2309.71 1269.98 2297.76 1308.49 2274.87 1348.75C2271.57 1354.59 2262.82 1369.27 2262.9 1374.96C2263.11 1390.63 2263.34 1406.72 2263.55 1422.42L2264.39 1515.56L2264.41 1797H1580.02C1578.87 1761.97 1576.51 1460.31 1571.32 1451.64C1565.87 1442.54 1487.25 1414.87 1474.19 1410.18C1456.11 1416.16 1402.03 1418.75 1381.46 1420.33C1360.55 1421.93 1285.08 1430.44 1268.92 1423.49C1261.26 1418.48 1260.51 1418.23 1253.98 1411.64C1253.71 1411.25 1253.45 1410.85 1253.19 1410.46C1244.12 1399.38 1237.62 1344.94 1233.41 1338.59L1231.14 1338.53C1228.1 1341.99 1226.27 1369.06 1225.12 1386.39L1224.18 1338.53C1222.83 1323.05 1183.48 1095.24 1188.41 1080.6C1205.66 1065.08 1237.08 1066.36 1259.92 1064.82L1344.73 1059.4C1353.46 1058.83 1372.28 1058.65 1379.26 1054.7C1380.92 1047.4 1367.15 1027.84 1362.99 1020.51C1336.19 973.23 1312.21 923.282 1292.5 872.837C1273.83 825.076 1255.76 765.079 1279.8 715.884C1290.11 694.469 1307.33 676.943 1328.81 665.994C1379.06 640.695 1507.95 632.274 1568.24 628.503C1603.25 627.56 1639.7 628.307 1674.56 627.593C1688.09 627.317 1743.03 630.156 1752.2 626.478C1759.47 611.546 1767.44 603.079 1778.39 590.647ZM1838.02 1034.84C1835.05 1014.09 1835.86 976.701 1836.03 955.209C1817.32 953.576 1777.85 943.625 1770.16 924.316C1741.22 896.502 1738.07 878.11 1736.39 838.671C1736 829.29 1737.24 817.825 1736.65 808.64C1718.31 808.287 1602.7 818.804 1590.73 825.287C1589.66 827.424 1589.3 827.961 1590.07 830.388C1596.17 849.484 1784.3 1047.18 1807.91 1062.27C1835.22 1058.05 1837.18 1061.63 1838.02 1034.84Z" fill="#050505"/>
<path d="M120.623 1030.43C94.6419 1028.08 48.7929 1022.69 27.5009 1007.55C19.6918 1002 7.83966 981.043 16.6683 973.145C18.0817 971.882 19.4794 970.981 21.5707 971.071C98.7104 974.351 176.619 978.817 253.241 988.329C271.729 990.632 290.488 994.708 308.644 998.472C317.204 1000.25 325.662 1003.28 334.259 1004.57C348.254 1001.84 346.998 1000.63 360.912 1004.42C358.474 1006.05 357.188 1007.19 354.284 1007.85C368.776 1011.1 385.095 1014.32 399.273 1018.02C401.661 1045.06 402.619 1068.96 400.937 1096.12L403.459 1096.76C403.339 1101.41 402.672 1112.56 405.187 1116.13C435.402 1117.09 468.551 1109.13 499.036 1114.98C505.236 1116.17 510.608 1115.95 517.047 1117.97L517.314 1118.78C513.668 1119.04 510.474 1119.21 506.819 1119.27C517.338 1120.56 528.249 1123.97 535.015 1124.75L535.929 1123.35C538.039 1123.59 535.775 1123.49 538.043 1122.92C544.569 1121.27 552.447 1123.53 557.881 1127.06L557.658 1129.26C555.544 1130.55 556.352 1130.37 554.037 1130.78C594.297 1155.59 591.492 1196.88 596.618 1238.13C597.358 1244.08 597.316 1252.5 598.608 1258.08C598.157 1281.57 601.077 1312.7 601.46 1338.2C601.844 1372.21 601.516 1406.22 600.476 1440.22C599.221 1475.77 596.649 1514.77 596.175 1550.06C534.501 1568.85 488.715 1576.06 423.176 1577.52C416.295 1581.07 412.287 1578.61 405.574 1581.35C408.686 1582.4 422.836 1582.78 427.256 1583C419.482 1584.61 389.852 1583.01 381.572 1582.58C331.747 1579.97 280.779 1574.22 233.14 1559.15C224.98 1556.58 212.619 1554.06 206.349 1548.67C204.311 1542.66 212.957 1519.45 215.296 1511.85C220.57 1494.59 225.34 1477.21 229.598 1459.69C231.074 1453.34 239.352 1421.73 235.508 1416.11C233.642 1413.53 222.146 1406.47 221.698 1403.89C218.12 1383.32 215.702 1349.27 220.672 1329.49C212.198 1311.92 215.646 1305.88 215.663 1287.34C215.678 1271.23 212.159 1255.28 220.829 1240.04C224.905 1232.88 236.94 1228.11 239.865 1219.38C239.24 1212.64 237.643 1201.93 234.336 1196.04C223.388 1191.51 195.894 1209 188.357 1199.39C187.94 1193.75 191.263 1187.78 193.39 1182.64C212.35 1136.71 266.498 1138.01 273.445 1128.25C266.819 1113.23 251 1128.82 239.672 1129.61C220.176 1130.97 205.837 1117.1 187.088 1116.88C171.497 1116.71 156.462 1124.72 140.522 1118.71C128.854 1114.46 112.164 1107.51 106.865 1095.9C96.7554 1073.75 113.226 1051.05 120.167 1031.72L120.623 1030.43Z" fill="#FEFEFE"/>
<path d="M120.623 1030.43C94.6419 1028.08 48.7929 1022.69 27.5009 1007.55C19.6918 1002 7.83966 981.043 16.6683 973.145C18.0817 971.882 19.4794 970.981 21.5707 971.071C98.7104 974.351 176.619 978.817 253.241 988.329C271.729 990.632 290.488 994.708 308.644 998.472C317.204 1000.25 325.662 1003.28 334.259 1004.57C348.254 1001.84 346.998 1000.63 360.912 1004.42C358.474 1006.05 357.188 1007.19 354.284 1007.85C368.776 1011.1 385.095 1014.32 399.273 1018.02C401.661 1045.06 402.619 1068.96 400.937 1096.12L403.459 1096.76C403.339 1101.41 402.672 1112.56 405.187 1116.13C435.402 1117.09 468.551 1109.13 499.036 1114.98C505.236 1116.17 510.608 1115.95 517.047 1117.97L517.314 1118.78C513.668 1119.04 510.474 1119.21 506.819 1119.27C517.338 1120.56 528.249 1123.97 535.015 1124.75L535.929 1123.35C538.039 1123.59 535.775 1123.49 538.043 1122.92C544.569 1121.27 552.447 1123.53 557.881 1127.06L557.658 1129.26C555.544 1130.55 556.352 1130.37 554.037 1130.78C517.872 1121.75 498.162 1161.59 493.748 1190.21C415.884 1175.51 317.211 1180.84 239.299 1192.7C240.765 1198.18 244.461 1215.11 246.787 1218.82C252.751 1217 266.427 1212.1 273.029 1211.24C297.256 1208.47 340.673 1209.51 355.18 1232.19C357.969 1236.56 350.869 1249.96 354.917 1254.45C372.821 1274.28 357.624 1290.81 339.487 1300.77C345.757 1317.54 337.579 1325.27 325.008 1335.06C339.372 1377.14 275.696 1388.24 246.389 1400.61C244.324 1410.98 242.034 1421.71 240.426 1432.15C234.433 1471.06 221.484 1508.04 210.085 1545.6C278.091 1572.01 350.651 1578.11 423.176 1577.52C416.295 1581.07 412.287 1578.61 405.574 1581.35C408.686 1582.4 422.836 1582.78 427.256 1583C419.482 1584.61 389.852 1583.01 381.572 1582.58C331.747 1579.97 280.779 1574.22 233.14 1559.15C224.98 1556.58 212.619 1554.06 206.349 1548.67C204.311 1542.66 212.957 1519.45 215.296 1511.85C220.57 1494.59 225.34 1477.21 229.598 1459.69C231.074 1453.34 239.352 1421.73 235.508 1416.11C233.642 1413.53 222.146 1406.47 221.698 1403.89C218.12 1383.32 215.702 1349.27 220.672 1329.49C212.198 1311.92 215.646 1305.88 215.663 1287.34C215.678 1271.23 212.159 1255.28 220.829 1240.04C224.905 1232.88 236.94 1228.11 239.865 1219.38C239.24 1212.64 237.643 1201.93 234.336 1196.04C223.388 1191.51 195.894 1209 188.357 1199.39C187.94 1193.75 191.263 1187.78 193.39 1182.64C212.35 1136.71 266.498 1138.01 273.445 1128.25C266.819 1113.23 251 1128.82 239.672 1129.61C220.176 1130.97 205.837 1117.1 187.088 1116.88C171.497 1116.71 156.462 1124.72 140.522 1118.71C128.854 1114.46 112.164 1107.51 106.865 1095.9C96.7554 1073.75 113.226 1051.05 120.167 1031.72L120.623 1030.43Z" fill="#19191B"/>
<path d="M192.397 1197.67C199.524 1180.24 206.122 1166.32 222.592 1155.31C233.168 1148.25 251.081 1141.63 263.228 1138.78C316.772 1126.21 456.139 1109.98 506.819 1119.27C517.339 1120.56 528.249 1123.97 535.015 1124.75C533.422 1126.64 524.047 1130.25 521.078 1132.26C502.065 1145.05 495.193 1164.89 490.315 1185.22C394.316 1172.57 286.683 1174.21 192.397 1197.67Z" fill="#FEFEFE"/>
<path d="M457.86 1142.16C463.328 1141.89 476.579 1140.38 480.291 1144.12C478.106 1145.8 474.494 1146.28 471.715 1146.26C408.271 1145.85 344.97 1149.75 281.756 1154.19C276.691 1154.73 263.613 1156.92 259.784 1154.06L260.418 1152.45C270.93 1146.55 439.326 1142.32 457.86 1142.16Z" fill="#19191B"/>
<path d="M345.881 1120.61C350.568 1085.89 352.719 1053.69 346.118 1018.92C345.416 1015.21 344.106 1010.45 344.693 1006.82C347.758 1005.98 351.07 1007.12 354.284 1007.85C368.776 1011.1 385.095 1014.32 399.273 1018.02C401.661 1045.06 402.619 1068.96 400.937 1096.12C399.704 1100.87 398.407 1110.42 397.547 1115.59C381.625 1117.6 361.718 1119.79 345.881 1120.61Z" fill="#FCFDFD"/>
<path d="M130.217 1027.6C103.774 1022.65 48.2968 1019.49 28.6825 1002.05C23.4371 997.383 18.0954 990.564 18.1301 983.325C18.1401 981.228 18.9903 978.883 20.6238 977.523C22.317 976.113 24.2616 975.695 26.4389 975.7C46.7271 975.746 73.5346 979.105 94.7006 980.475C140.937 983.466 187.273 985.636 233.271 991.336C248.975 993.282 332.373 1004.27 340.009 1015.29C343.464 1020.27 343.408 1030.11 343.947 1035.95C346.821 1067.16 345.446 1090.59 340.698 1121.55L326.546 1122.8C319.235 1124.85 304.636 1126.54 296.652 1127.38L292.317 1128.52C281.035 1126.55 256.629 1112.51 248.231 1104.45C247.287 1101.8 247.779 1100.53 248.246 1097.75L248.435 1096.67L246.931 1095.51L245.219 1096.46C242.964 1100.19 241.364 1102.01 241.22 1106.31C245.604 1112 250.383 1107.05 254.729 1116.6C251.318 1128.18 211.046 1126.99 206.18 1110.11C202.166 1096.19 216.531 1060.32 213.149 1053.17C203.883 1061.07 201.559 1100.26 201.311 1112.23C192.589 1118.14 172.068 1105.38 166.305 1097.58C166.075 1080.28 173.791 1048.51 173.17 1040.58L172.112 1039.91C164.806 1050.88 161.819 1087.27 162.118 1101.18C112.801 1094.93 129.435 1070.37 133.476 1033.35C134.1 1027.63 141.265 1011.01 138.754 1006.33C134.237 1009.18 131.728 1021.94 130.217 1027.6Z" fill="#713D29"/>
<path d="M271.025 1333.21C279.281 1330.15 282.189 1329.17 290.799 1327.66C291.03 1338.31 293.684 1373.63 312.14 1354C313.98 1341.14 311.219 1338.01 304.515 1326.66C321.679 1335.09 332.544 1346.73 315.951 1363.69C301.038 1378.74 264.977 1388.74 243.153 1396.94C241.901 1402.02 240.419 1407.26 239.052 1412.33C216.624 1398.06 218.911 1374.36 236.393 1357.85C239.714 1359.21 237.259 1363.01 241.474 1366.98C243.745 1365.66 244.256 1365.04 246.877 1364.99C248.878 1366.93 249.872 1368.02 251.674 1370.14L253.739 1369.97C253.717 1368.24 247.837 1351.24 246.697 1347.17C254.296 1340.88 258.55 1338.83 267.199 1334.24C268.471 1342.9 268.809 1346.24 274.02 1353.75L275.11 1353.19C275.369 1349.42 272.002 1339.08 271.025 1333.21Z" fill="#713D29"/>
<path d="M285.484 1248.38C282.417 1257.82 282.419 1257.95 283.267 1268.09L284.894 1269.15C287.242 1261.66 288.623 1251.86 294.928 1247.43C300.791 1246.29 308.807 1244.02 313.848 1247.32C318.969 1256.46 306.078 1266.53 321.047 1284.71C281.565 1283.73 250.018 1296.34 224.385 1325.75C217.084 1310.39 217.083 1304.38 221.98 1288.04C226.36 1281.81 229.503 1277.58 234.459 1271.82C234.641 1278.94 234.522 1285.37 236.284 1292.32L240.321 1291.35C242.599 1287.3 241.281 1288.21 245.013 1287.11L247.963 1286.21C249.56 1278.93 247.58 1272.17 249.875 1262.63C260.501 1255.71 273.328 1252.08 285.484 1248.38Z" fill="#713D29"/>
<path d="M221.98 1288.04C226.361 1281.81 229.503 1277.58 234.459 1271.82C234.642 1278.94 234.523 1285.37 236.284 1292.32C229.599 1288.5 229.815 1289.03 221.98 1288.04Z" fill="#713D29"/>
<path d="M285.822 1214.26C298.802 1214.06 306.761 1214.41 319.312 1217.37C316.295 1226.86 315.719 1230.92 314.712 1240.86C313.66 1240.9 312.608 1240.96 311.558 1241.04C273.71 1244.16 245.838 1252.84 221.078 1280.94C219.815 1271.92 219.28 1267.95 219.567 1258.96C222.589 1245.09 226.817 1239.92 237.12 1230.07C237.375 1234.72 236.395 1243.25 241.527 1244.45C245.302 1236.84 237.042 1231.15 243.825 1226.36C246.533 1228.31 246.776 1234.58 249.848 1239.56L251.517 1239.86C253.168 1236.08 250.231 1227.9 249.071 1223.49C259.978 1218.56 269.367 1216.97 280.97 1214.04C280.757 1219.7 278.877 1232.68 285.243 1234.72L286.936 1233.42C285.783 1226.25 285.171 1222.96 285.704 1215.73L285.822 1214.26Z" fill="#713D29"/>
<path d="M223.921 1365.88C219.118 1341.5 224.099 1328.48 243.421 1312.49L244.62 1312.71C244.397 1316.59 244.164 1318.19 244.802 1321.99C253.408 1319.65 247.615 1297.68 283.646 1294.05L284.563 1295.23C283.526 1300.34 280.975 1307.13 284.319 1311.26C288.865 1309.61 285.337 1290.25 300.768 1288.84C301.643 1289.34 302.519 1289.82 303.395 1290.31C302.994 1294.87 302.736 1299.54 302.537 1304.09C302.219 1311.39 301.875 1313.64 306.25 1319.67L303.877 1322.22C271.441 1320.97 241.582 1340.43 223.921 1365.88Z" fill="#713D29"/>
<path d="M255.711 1308.89C259.902 1310.66 258.138 1320.72 258.589 1326.14C255.659 1326.24 256.998 1326.59 254.499 1324.85C252.617 1319.41 253.811 1314.18 255.711 1308.89Z" fill="#19191B"/>
<path d="M125.369 1031.27C126.852 1031.77 127.114 1032.08 128.458 1032.9C129.208 1040.11 125.375 1055.35 124.594 1062.93C122.506 1083.21 119.463 1093.51 142.639 1101.08C151.824 1104.07 154.848 1104.9 164.758 1104.31C168.465 1106.93 172.349 1108.41 174.854 1111.89C172.985 1114.66 172.748 1113.91 168.463 1115.15C155.371 1116.25 145.96 1115.25 133.431 1110.92C92.6119 1096.84 114.087 1057.54 125.369 1031.27Z" fill="#713D29"/>
<path d="M322.586 1246.06C327.069 1246.26 332.626 1247.51 337.125 1248.36C336.721 1260.1 337.689 1272.59 331.601 1282.47C313.454 1283.82 316.485 1256.58 322.586 1246.06Z" fill="#713D29"/>
<path d="M341.627 1251.29C345.33 1252.68 349.241 1256.04 352.492 1258.49C351.681 1263.01 348.212 1276.92 348.917 1281.49C349.102 1282.68 352.116 1282.24 352.365 1286.35C349.11 1290.34 346.385 1292 342.236 1294.96C337.869 1294.44 328.697 1291.19 326.078 1287.71C330.316 1286.77 331.085 1286.44 334.943 1284.47C341.305 1276.76 340.851 1261.68 341.627 1251.29Z" fill="#713D29"/>
<path d="M309.727 1288.87L317.4 1289.79C325.133 1295.34 323.442 1311.95 319.066 1318.43C300.226 1318.51 305.825 1300.38 309.727 1288.87Z" fill="#713D29"/>
<path d="M316.705 1322.75C332.305 1316.63 322.166 1300.52 327.567 1294.83C342.818 1300.12 338.459 1324.23 325.401 1329.32C321.034 1331.02 319.299 1329.41 315.451 1327.39L316.705 1322.75Z" fill="#713D29"/>
<path d="M324.735 1218.24C328.144 1219.21 334.433 1221.76 337.975 1223.08C335.686 1228.91 333.139 1234.65 330.642 1240.4C328.968 1241.96 326.79 1241.84 324.025 1242.36C316.51 1236.86 320.339 1224.76 324.735 1218.24Z" fill="#713D29"/>
<path d="M295.947 1325.82C298.003 1326.25 299.116 1326.67 301.1 1327.37C306.364 1336.89 310.384 1343.95 307.342 1354.68C292.319 1356.22 295.014 1335.59 295.947 1325.82Z" fill="#713D29"/>
<path d="M341.995 1225.52C350.75 1230.34 356.995 1241.5 348.246 1249.36C343.121 1246.56 340.155 1245.71 334.612 1243.88C336.866 1236.2 338.47 1232.82 341.995 1225.52Z" fill="#713D29"/>
<path d="M240.321 1291.35C239.265 1285.86 235.355 1269.35 242.969 1268.29C244.13 1270.61 243.32 1281.46 245.013 1287.11C241.281 1288.21 242.599 1287.3 240.321 1291.35Z" fill="#713D29"/>
<path d="M306.249 1319.67C309.555 1320.72 313.351 1322.04 316.705 1322.75L315.451 1327.39L303.876 1322.22L306.249 1319.67Z" fill="#E0E2EA"/>
<path d="M1784.73 589.806C1807.01 559.627 1826.2 543.836 1865.58 553.527C1870.89 554.833 1875.77 557.589 1881.23 558.304C1894.03 560.535 1911.73 556.597 1923.85 558.72C1948.28 563.004 1969.87 579.459 1990.33 592.188C1997.84 596.906 2006.63 600.445 2014.15 605.27C2017.29 607.28 2015.13 612.615 2015.83 613.568C2020.14 619.463 2025.85 624.703 2030.73 630.176C2045.61 648.574 2059.98 674.868 2066.21 697.22C2060.11 714.049 2050.63 738.356 2049.8 755.869C2098.1 764.944 2081.75 835.089 2033.6 852.464C2033.41 860.322 2031.38 892.167 2032.31 896.878C2036.57 918.243 2029.6 1051.34 2036.46 1059.86C2035.34 1062.96 2035.35 1063.7 2032.53 1065.52C2032.29 1064.99 2032.04 1064.45 2031.79 1063.92C2015.22 1080.39 1972.65 1089.16 1949.23 1094.22C1947.45 1094.04 1931.87 1094.86 1928.31 1094.91C1899.03 1095.24 1881.13 1092.53 1855.08 1079.95C1854.56 1079.15 1849.17 1075.97 1847.98 1075.23L1847.51 1032.35L1843.66 1034.84C1840.69 1014.09 1841.5 976.701 1841.67 955.209C1822.96 953.576 1783.49 943.625 1775.81 924.316C1777.54 920.05 1777.45 922.131 1776.33 917.87C1771.82 913.729 1767.33 909.369 1763.76 904.409C1730.79 858.494 1754.72 721.327 1764.06 667.131C1765.58 660.287 1766.76 657.395 1769.46 650.834C1768.6 649.211 1769.01 649.476 1767.82 648.592L1761.09 643.679C1758.25 636.945 1759.06 633.371 1757.84 626.478C1765.11 611.546 1773.08 603.079 1784.03 590.647L1784.73 589.806Z" fill="#713D29"/>
<path d="M1784.73 589.806C1807.01 559.627 1826.2 543.836 1865.58 553.527C1870.89 554.833 1875.77 557.589 1881.23 558.304C1894.03 560.535 1911.73 556.597 1923.85 558.72C1948.28 563.004 1969.87 579.459 1990.33 592.188C1997.84 596.906 2006.63 600.445 2014.15 605.27C2017.29 607.28 2015.13 612.615 2015.83 613.568C2020.14 619.463 2025.85 624.703 2030.73 630.176C2045.61 648.574 2059.98 674.868 2066.21 697.22C2060.11 714.049 2050.63 738.356 2049.8 755.869C2044.28 756.701 2038.71 756.605 2034.69 759.724C2033.4 761.944 2033.13 761.949 2033.02 764.441C2031.77 769.078 2030.27 774.156 2029.17 778.778C2028.8 779.856 2027.74 782.74 2027.68 783.685C2021.43 795.483 2013.51 827.432 2001.46 831.862C1999.03 831.414 1998.28 831.396 1996.62 829.423C1986.42 817.246 1998.29 707.468 2000.33 686.18C1985.83 680.363 1971.26 680.924 1956.72 674.975C1942.79 669.275 1924.03 655.415 1909.85 652.073C1900.55 650.443 1866.06 648.819 1860.64 656.426C1875.05 661.17 1866.95 677.854 1858.49 680.338C1835.53 687.08 1804.31 666.71 1780.59 665.577L1777.46 663.26L1777.24 660.543C1781.11 654.471 1790.62 651.568 1797.57 648.736C1791.64 648.434 1772.73 646.558 1769.46 650.834C1768.6 649.211 1769.01 649.476 1767.82 648.592L1761.09 643.679C1758.25 636.945 1759.06 633.371 1757.84 626.478C1765.11 611.546 1773.08 603.079 1784.03 590.647L1784.73 589.806Z" fill="#050505"/>
<path d="M1873.21 630.875C1871.72 635.536 1871.25 636.3 1871.4 641.052C1878.66 653.39 1897.84 640.294 1909.85 652.073C1900.55 650.443 1866.06 648.818 1860.64 656.426C1857.1 656.884 1858.58 657.288 1855.9 655.834C1853.29 649.371 1858.74 646.674 1859.82 640.536C1860.39 637.211 1860.11 636.222 1863.12 634.719C1862.87 637.746 1862.69 637.662 1863.72 640.475L1865.33 640.224C1868.07 636.25 1869.56 634.191 1873.21 630.875Z" fill="#050505"/>
<path d="M1863.12 634.719C1874.17 626.117 1878.23 616.749 1896.63 611.674C1903.29 609.836 1932.77 607.461 1936 609.192C1935.57 612.707 1934.42 612.279 1930.11 612.676C1906.84 614.82 1891.39 612.223 1874.22 629.834L1873.21 630.876C1869.56 634.191 1868.07 636.25 1865.33 640.224L1863.72 640.476C1862.69 637.662 1862.87 637.747 1863.12 634.719Z" fill="#8EF2FC"/>
<path d="M1992.42 635.178L1993.99 638.03C1993.2 640.113 1992.56 641.775 1991.63 643.827C2000.38 650.45 2014.03 640.348 2016.13 650.477L2014.57 653.88C2008.53 660.905 1991.72 654.82 1983.4 657.186C1976.08 659.267 1967.96 671.723 1960.02 669.407C1959.09 666.497 1961.49 661.842 1962.7 658.69C1961.63 656.148 1961.51 655.894 1960.99 653.201L1963.13 651.26L1962.96 650.036C1958.6 649.346 1958.06 649.483 1954.74 646.913C1960.95 635.451 1980.58 633.979 1992.42 635.178Z" fill="#050505"/>
<path d="M1979.23 649.714C1990.07 649.199 2005.35 649.356 2016.13 650.477L2014.57 653.88C2006.22 652.981 1983.17 650.732 1977.08 656.082C1972.46 660.138 1971.44 662.545 1964.51 664.886L1963.08 663.867C1965.1 658.049 1974.1 652.924 1979.23 649.714Z" fill="#050505"/>
<path d="M1954.74 646.913C1960.95 635.451 1980.58 633.979 1992.42 635.178L1991.63 637.719C1985.8 639.908 1980.8 638.234 1974.05 639.812C1968.29 641.163 1959.49 646.996 1954.74 646.913Z" fill="#050505"/>
<path d="M1901.73 598.183C1908.45 597.714 1915.68 597.422 1922.29 598.81C1920.68 601.783 1896.55 602.972 1885.29 608.124L1883.9 608.765C1878.75 611.64 1876.33 615.303 1870.66 615.584L1870.88 613.945C1881.27 604.602 1888.11 601.291 1901.73 598.183Z" fill="white"/>
<path d="M1849.45 596.885L1850.49 597.449C1851.05 600.026 1850.36 600.272 1846.47 602.021C1827.93 610.337 1823.34 611.415 1815.92 630.077C1813.95 630.112 1814.94 630.257 1813.03 628.989C1812.51 611.198 1834.8 601.238 1849.45 596.885Z" fill="#8EF2FC"/>
<path d="M1800.99 601.125C1804.5 599.027 1805.36 597.761 1809.08 597.677C1808.39 602.127 1792.19 613.026 1788.95 617.246C1787.64 618.956 1783.92 629.799 1783.03 632.301L1781.34 632.158C1777.36 621.919 1791.44 607.635 1799.38 602.075L1800.99 601.125Z" fill="#8EF2FC"/>
<path d="M1847.13 1013.93C1890.42 1026.08 1928.5 1032.34 1973.78 1027.25C1991.82 1025.22 2008.38 1020.94 2025.85 1016.35C2026.28 1016.95 2026.7 1017.54 2027.11 1018.13C2029.66 1033.49 2022.74 1053.97 2031.79 1063.92C2015.22 1080.39 1972.65 1089.16 1949.23 1094.22C1947.45 1094.04 1931.87 1094.87 1928.31 1094.91C1899.03 1095.24 1881.13 1092.53 1855.08 1079.95C1854.56 1079.15 1849.17 1075.97 1847.98 1075.23L1847.51 1032.35C1847.3 1026.3 1846.96 1019.95 1847.13 1013.93Z" fill="#FCFDFD"/>
<path d="M1795.81 873.881C1821.54 873.802 1884.16 884.881 1906.51 898.069C1918.37 905.061 1904.94 943.212 1891.8 954.426C1876.46 958.602 1866.81 957.968 1851.17 956.106C1850.29 956.002 1847.72 956.91 1847.73 958.049C1845.22 969.369 1847.1 991.456 1846.62 1002.94C1845.53 993.374 1848.11 959.027 1843.98 954.27L1841.67 955.209C1822.96 953.576 1783.49 943.625 1775.8 924.316C1777.54 920.051 1777.45 922.131 1776.32 917.87C1780.96 907.663 1775.78 896.741 1785.91 879.282L1795.81 873.881Z" fill="#050505"/>
<path d="M2049.8 755.869C2098.1 764.944 2081.75 835.089 2033.6 852.464C2033.41 860.322 2031.38 892.167 2032.31 896.878C2036.57 918.243 2029.6 1051.34 2036.46 1059.86C2035.34 1062.96 2035.35 1063.7 2032.53 1065.52C2032.29 1064.99 2032.04 1064.45 2031.79 1063.92C2022.74 1053.97 2029.66 1033.48 2027.11 1018.13C2026.7 1017.54 2026.28 1016.95 2025.85 1016.35C2008.38 1020.94 1991.82 1025.22 1973.78 1027.25C1928.5 1032.34 1890.42 1026.08 1847.13 1013.93C1846.96 1019.95 1847.3 1026.3 1847.51 1032.35L1843.66 1034.84C1840.69 1014.09 1841.5 976.7 1841.67 955.209L1843.98 954.27C1848.11 959.027 1845.53 993.374 1846.62 1002.94C1846.63 1003.29 1846.66 1005.91 1846.84 1006.24C1850.48 1013.24 1874.93 1017.27 1881.6 1018.5C1930.5 1027.55 1980.36 1027.92 2027.23 1010.1L2026.79 903.547C2026.74 888.731 2026.87 873.926 2026.99 859.116C2027.01 855.58 2023.59 853.238 2024.37 849.902C2029.62 847.596 2036.83 846.331 2042.28 843.292C2071.01 827.245 2089.49 776.7 2051.01 760.923C2045.22 758.549 2038.68 761.088 2033.02 764.441C2033.13 761.949 2033.4 761.944 2034.7 759.724C2038.71 756.605 2044.28 756.701 2049.8 755.869Z" fill="#19191B"/>
<path d="M2029.17 778.778C2036.76 780.61 2043.28 782.776 2047.65 789.701C2050.46 794.16 2053.46 809.193 2047.96 812.226L2046.24 811.205C2045.36 803.558 2049.48 797.532 2042.9 790.233C2038.13 784.936 2034.46 784.49 2027.68 783.685C2027.74 782.74 2028.8 779.856 2029.17 778.778Z" fill="#242425"/>
<path d="M1940.59 786.004C1925.3 787.612 1906.01 781.219 1898.65 766.545C1897.38 764.004 1898.17 760.389 1896.11 756.357L1890.51 754.868L1889.59 752.916L1890.57 751.301C1893.48 751.332 1894.87 751.32 1897.75 751.042C1930.35 712.403 1971.72 753.658 1966.42 767.828C1959.65 769.063 1960.76 773.59 1953.24 780.6C1947.82 783.541 1946.58 784.145 1940.59 786.004Z" fill="#242425"/>
<path d="M1935.01 781.611C1925.85 785.307 1902.37 771.451 1900.6 761.417L1901.79 759.854C1909.48 756.291 1925.46 760.298 1933.67 762.491C1934.09 763.518 1935.21 766.126 1935.43 767.047C1931.61 772.592 1930.09 775.996 1935.01 781.611Z" fill="#FCFDFD"/>
<path d="M1935.43 767.047C1941.3 766.843 1944.07 766.087 1948.87 769.527C1948.52 774.799 1947.77 774.213 1949.77 778.398L1953.24 780.6C1947.82 783.541 1946.58 784.145 1940.59 786.004L1938.4 785.04C1937.11 782.887 1937.28 782.557 1935.01 781.612C1930.09 775.996 1931.61 772.593 1935.43 767.047Z" fill="#09080C"/>
<path d="M1933.67 762.491C1941.29 763.111 1952.51 762.637 1956.84 769.526C1956.24 773.867 1957.13 771.998 1953.97 775.269L1951.5 775.898C1950.82 774.119 1949.77 771.059 1948.87 769.526C1944.07 766.087 1941.3 766.843 1935.43 767.047C1935.21 766.126 1934.09 763.518 1933.67 762.491Z" fill="#E0E2EA"/>
<path d="M1920.91 739.266C1943.03 737.822 1952.69 745.135 1962.14 763.544C1955.98 762.02 1950.54 760.781 1944.3 759.583C1935.98 757.959 1906.74 756.888 1905.05 749.193C1908.12 743.851 1915.26 741.441 1920.91 739.266Z" fill="#FCFDFD"/>
<path d="M1808.43 767.672C1787.39 765.081 1780.75 755.48 1772.88 737.871C1772.63 737.296 1768.36 737.034 1766.26 733.957L1767.31 732.426C1768.38 732.395 1774.61 732.144 1774.89 731.832C1781.17 724.791 1787.35 716.793 1797.64 715.366C1816.71 712.723 1840.16 727.509 1843.2 746.538C1843.87 750.752 1838.61 748.808 1838.12 749.721C1835.52 754.609 1833.3 757.658 1829.27 761.582C1820.34 767.26 1819.13 767.528 1808.43 767.672Z" fill="#19191B"/>
<path d="M1777.49 737.261C1791.66 740.516 1820.51 741.503 1831.05 748.614C1833.04 751.939 1832.78 750.235 1832.04 753.867C1828.57 756.13 1830.39 755.609 1826.46 755.783L1824.1 751.259C1824.76 761.999 1824.79 755.75 1829.27 761.582C1820.34 767.26 1819.13 767.528 1808.43 767.672L1809.98 763.534L1808.62 762.664C1791.33 762.92 1782.23 752.227 1777.49 737.261Z" fill="#FCFDFD"/>
<path d="M1808.62 762.663C1800.48 750.994 1813.96 740.646 1824.1 751.259C1824.76 761.999 1824.79 755.75 1829.27 761.582C1820.34 767.26 1819.13 767.528 1808.43 767.672L1809.98 763.534L1808.62 762.663Z" fill="#09080C"/>
<path d="M1796.67 720.037C1817.41 717.473 1829.2 726.082 1837.76 743.49L1823.09 741.06C1808.19 737.475 1793.03 735.025 1777.73 733.732C1784.58 726.718 1787.18 723.532 1796.67 720.037Z" fill="#FCFDFD"/>
<path d="M1900.74 695.269C1918.38 694.925 1992.81 704.547 1988.71 730.693C1985.97 732.693 1986.38 731.958 1981.84 731.612C1958.02 729.025 1932.35 728.092 1908.74 725.627C1895.5 724.243 1879.36 705.597 1900.74 695.269Z" fill="#050505"/>
<path d="M1863.94 725.852L1865.95 727.416C1865.28 736.805 1842.89 798.59 1838.16 810.191C1845.56 829.065 1855.07 823.916 1857.84 830.213L1855.96 831.378C1846.06 829.454 1838.96 826.605 1830.33 821.61C1836.66 801.506 1855.78 742.293 1863.94 725.852Z" fill="#19191B"/>
<path d="M1911.76 841.102L1913.55 842.511L1913.64 845.084C1911.29 850.994 1903.77 857.853 1897.97 860.384C1882.41 867.187 1871.07 863.512 1856.47 858.549C1855.44 856.067 1855.63 857.34 1855.99 854.568C1860.42 854.104 1874.45 862.854 1886.35 859.77C1899.58 856.341 1904.43 851.861 1911.76 841.102Z" fill="#19191B"/>
<path d="M1779.27 782.742C1784.18 785.103 1788.93 792.334 1789.12 797.551L1785.95 796.952C1781.22 792.763 1779.71 788.887 1779.27 782.742Z" fill="#19191B"/>
<path d="M1930.67 799.288L1934.14 799.769C1939.21 803.156 1941.54 807.26 1943.86 812.704C1936.29 810.545 1934.94 806.28 1930.67 799.288Z" fill="#242425"/>
<path d="M1803.74 796.25C1799.22 794.384 1794.93 789.59 1794.26 784.776L1796.52 782.982C1800.04 787.079 1803.88 790.703 1803.74 796.25Z" fill="#242425"/>
<path d="M1914.65 797.078L1917.48 797.511C1922.36 800.821 1923.63 803.651 1925.04 809.267C1918.61 808.329 1916.41 802.415 1914.65 797.078Z" fill="#242425"/>
<path d="M598.608 1258.08L598.739 1256.86C599.249 1251.64 598.388 1238.46 599.504 1236.26C602.871 1240.72 597.532 1246.56 601.178 1251.48C606.406 1258.55 600.028 1272.42 604.436 1278.51L610.231 1280.6C647.178 1285.55 686.661 1296.05 724.033 1301.38C704.586 1316.46 681.042 1332.36 663.981 1349.16L664.661 1350.21C686.998 1385.3 705.104 1445.96 726.298 1480.68C741.953 1506.32 799.592 1644.36 814.373 1656.87C814.705 1653.39 812.113 1647.16 810.524 1643.97C780.68 1583.97 751.407 1523.55 722.682 1463.02C712.268 1441.2 701.984 1419.33 691.83 1397.4C685.34 1383.22 676.887 1363.18 669.141 1350.01C687.469 1331.35 710.487 1319.36 728.643 1302.36L796.341 1315.5C807.283 1317.59 824.427 1320.26 834.752 1322.99C831.986 1352.45 834.191 1404.04 834.589 1434.69C835.031 1468.58 834.289 1508.5 835.892 1541.69L837.24 1630.31C837.681 1648.91 838.704 1667.78 838.019 1686.43C837.912 1689.32 836.818 1691.06 836.627 1694.28C835.848 1728.52 835.536 1762.76 835.692 1797H530.749C529.628 1722.65 530.958 1646.1 530.717 1571.43C508.186 1577.92 451.638 1581.75 427.256 1583C422.837 1582.78 408.687 1582.4 405.574 1581.35C412.287 1578.61 416.295 1581.07 423.176 1577.52C488.715 1576.06 534.502 1568.85 596.175 1550.06C596.649 1514.77 599.221 1475.77 600.476 1440.22C601.516 1406.22 601.844 1372.21 601.461 1338.2C601.077 1312.7 598.158 1281.57 598.608 1258.08Z" fill="#050505"/>
<path d="M598.609 1258.08L598.739 1256.86C599.249 1251.64 598.388 1238.46 599.504 1236.26C602.871 1240.72 597.533 1246.56 601.178 1251.48C606.407 1258.55 600.028 1272.42 604.436 1278.51L610.231 1280.6C607.91 1282.3 604.06 1284.19 604.085 1287.23C604.35 1321.65 605.569 1356.19 605.038 1390.63C604.881 1400.88 606.203 1418.47 604.2 1427.82C603.101 1415.35 604.849 1342.83 601.461 1338.2C601.077 1312.7 598.158 1281.57 598.609 1258.08Z" fill="#19191B"/>
<path d="M1463.51 1055.78C1467.11 1053.76 1468.44 1055.06 1471.45 1052.57C1476.99 1047.96 1481.81 1050.07 1487.85 1051.74C1499.02 1062.45 1500.31 1066.69 1503.35 1081.6C1508.28 1105.74 1513.25 1129.91 1518.02 1154.1C1519.26 1160.26 1520.98 1172.88 1523.56 1178.21C1524.32 1190.95 1530.12 1207.95 1532.31 1220.71L1525.17 1219.56C1522.31 1217.76 1515.15 1218.15 1511.7 1218.33C1505.84 1214.53 1442.44 1203.4 1437.28 1206.93C1434.84 1210.81 1434.98 1213 1434.45 1217.5C1429.23 1216.88 1412.11 1211.11 1404.69 1209.52C1397.13 1207.9 1383.07 1205.67 1376.96 1203.63C1368.91 1203.29 1338.38 1197.79 1329.88 1196.26C1306.52 1193.08 1231.95 1182.5 1212.28 1184.63C1204.32 1158.2 1199.41 1125.65 1194.09 1098.47C1188.32 1069.09 1234.26 1072.17 1253.12 1071L1310.37 1066.96C1361.16 1063.56 1412.66 1058.24 1463.51 1055.78Z" fill="#050505"/>
<path d="M1463.51 1055.78C1467.11 1053.76 1468.44 1055.06 1471.45 1052.57C1476.99 1047.96 1481.81 1050.07 1487.85 1051.74C1499.02 1062.45 1500.31 1066.69 1503.35 1081.6C1508.28 1105.74 1513.25 1129.91 1518.02 1154.1C1519.26 1160.26 1520.98 1172.88 1523.56 1178.21C1524.32 1190.95 1530.12 1207.95 1532.31 1220.71L1525.17 1219.56C1525.42 1209.1 1511.79 1156.53 1509.12 1143.72C1504.02 1121.24 1499.94 1098.51 1494.57 1076.1C1489.72 1055.89 1480.4 1057.93 1463.51 1055.78Z" fill="#050505"/>
<path d="M1342.37 1176.86C1364.42 1170.4 1376.07 1182.41 1376.96 1203.63C1368.91 1203.29 1338.38 1197.79 1329.88 1196.26C1332.8 1186.37 1334.82 1184.1 1342.37 1176.86Z" fill="#663623"/>
<path d="M893.377 929.245C899.109 929.766 918.524 924.781 924.141 923.094C947.885 915.96 965.816 903.704 976.795 881.524C979.391 876.279 980.651 870.328 982.857 866.092L984.191 868.977L985.442 868.653C988.726 884.479 987.101 904.191 987.723 920.371C989.108 956.398 985.542 999.934 988.14 1035.38C996.001 1038.09 1009.92 1042.57 1017.19 1045.9C1012.17 1045.13 1011.28 1044.89 1006.43 1046.21C1001.48 1044.37 995.422 1040.4 991.878 1041.6C986.031 1050.49 988.786 1063.87 979.784 1071.97L978.101 1071.53C974.753 1074.8 969.262 1088.55 967.086 1093.69C958.674 1093.81 946.772 1094.32 938.636 1093.78C938.251 1091.93 938.22 1092.38 936.978 1090.69L934.592 1090.5L932.323 1093.07C924.342 1094.45 910.801 1093.61 902.401 1093.16C892.179 1092.67 860.989 1088.39 856.459 1089.31C854.682 1086.87 848.698 1085.69 845.756 1085.09C835.82 1076.7 831.265 1072.23 824.05 1061.59C821.664 1065.58 816.589 1076.74 814.936 1078.49C814.556 1077.97 812.641 1076.7 812.016 1076.25C809.862 1079.98 810.562 1080.28 807.401 1081.58C804.764 1080.33 804.693 1080.45 802.678 1078.43L796.487 1079.11C795.97 1077.75 777.996 1060.03 775.733 1057.79L773.44 1058.2C770.119 1049.18 775.652 1034.54 768.453 1031.02C774.153 1023.25 771.816 1004.76 771.939 994.787C772.254 969.197 770.069 943.024 772.98 917.537C774.99 919.054 774.661 919.231 776.883 919.808C781.51 920.15 792.436 922.435 794.572 922.185L800.103 923.774C804.133 924.636 821.659 927.417 825.292 926.993C843.377 931.665 874.826 931.225 893.377 929.245Z" fill="#19191B"/>
<path d="M893.378 929.245C899.109 929.766 918.525 924.781 924.142 923.094C947.886 915.96 965.816 903.704 976.796 881.524C979.392 876.279 980.652 870.328 982.858 866.092L984.192 868.977C982.556 904.893 983.685 948.19 983.757 984.808C938.755 1007.98 835.155 998.219 785.92 983.454C782.925 982.576 779.985 981.532 777.113 980.325C777.179 963.643 778.043 935.571 776.884 919.808C781.51 920.15 792.437 922.435 794.573 922.185L800.103 923.774C804.133 924.636 821.659 927.417 825.293 926.993C843.377 931.665 874.827 931.225 893.378 929.245Z" fill="#713D29"/>
<path d="M824.05 1061.59C828.493 1051.11 846.903 1007.88 853.543 1002.15C862.601 999.697 892.9 1002.29 904.265 1002.69C910.694 1025.48 919.127 1047.99 925.945 1070.66C928.281 1078.06 931.317 1085.5 932.323 1093.07C924.342 1094.45 910.801 1093.61 902.401 1093.16C892.178 1092.67 860.989 1088.39 856.459 1089.31C854.682 1086.87 848.698 1085.69 845.756 1085.09C835.82 1076.7 831.265 1072.23 824.05 1061.59Z" fill="#050505"/>
<path d="M902.401 1093.16C905.468 1089.17 921.365 1072.13 925.945 1070.66C928.281 1078.06 931.317 1085.5 932.323 1093.07C924.342 1094.45 910.801 1093.61 902.401 1093.16Z" fill="#FCFDFD"/>
<path d="M776.812 1052.47C776.808 1037.33 775.932 1000.9 777.506 987.451C780.67 986.247 789.023 988.956 793.004 989.996C811.556 994.849 829.423 997.498 848.369 1000.29C839.344 1015.51 820.02 1058.77 812.016 1076.25C809.862 1079.98 810.562 1080.28 807.401 1081.58C804.764 1080.33 804.693 1080.45 802.678 1078.43C795.375 1072.11 783.836 1059.68 776.812 1052.47Z" fill="#FCFDFD"/>
<path d="M938.636 1093.78C943.185 1090.09 977.672 1064.72 980.636 1064.4L978.102 1071.53C974.753 1074.8 969.262 1088.55 967.086 1093.69C958.674 1093.81 946.772 1094.32 938.636 1093.78Z" fill="#FCFDFD"/>
<path d="M982.292 990.843C984.773 994.675 983.68 1046.09 983.643 1054.93C969.041 1067.03 952.36 1078.23 936.897 1089.57C934.779 1083.94 932.831 1078.25 931.053 1072.51C923.347 1049.29 915.878 1026 908.646 1002.64C937.968 1001.75 954.481 1000.79 982.292 990.843Z" fill="#FCFDFD"/>
<path d="M1212.28 1184.63C1231.95 1182.5 1306.52 1193.08 1329.88 1196.26C1338.38 1197.79 1368.91 1203.29 1376.96 1203.63C1383.07 1205.67 1397.13 1207.9 1404.69 1209.52C1412.11 1211.11 1429.23 1216.88 1434.45 1217.5C1434.08 1220.18 1434.49 1219.61 1433.26 1221.8L1446.39 1227.18C1445.08 1233.58 1444.53 1239.92 1444.1 1246.43C1441.03 1292.86 1434.75 1338.73 1429.45 1384.95L1428.6 1389.8C1418.21 1387.27 1405.82 1388.16 1395.73 1386.43C1363.97 1380.99 1327.52 1376.89 1296.45 1369.16C1295.81 1368.64 1295.16 1368.11 1294.52 1367.57C1269.33 1346.01 1289.26 1343.86 1289.15 1325.66C1289.04 1311.39 1270.37 1311.82 1293.32 1289.24C1278.13 1273.61 1279.91 1265.77 1292.27 1249.5C1282.06 1247.6 1229.12 1236.91 1222.35 1239.75C1221.25 1237.32 1221.91 1236.76 1222.37 1233.62C1216.06 1232.67 1208.52 1230.86 1202.03 1229.63L1200.47 1230.83L1197.11 1229.11C1193.09 1227.97 1189.06 1226.8 1185.05 1225.61C1182.84 1226.79 1183.99 1226.52 1181.54 1226.16L1179.35 1222.9C1171.17 1215.73 1170.17 1213.87 1171.8 1203.46C1179.59 1193.71 1184.66 1192.12 1196.29 1188.55L1203.44 1187.14C1206.92 1184.88 1207.09 1188.19 1212.28 1184.63Z" fill="#713D29"/>
<path d="M1222.37 1233.62C1243.85 1236.41 1265.96 1240.84 1287.38 1244.42C1291.31 1245.07 1309.62 1248.24 1312.13 1249.24L1312.19 1250.5C1307.35 1252.51 1304.65 1251.39 1299.4 1250.38C1278.91 1266.68 1284.04 1283.62 1308.66 1290.52L1309.41 1291.99C1304.27 1294.35 1299.87 1289.71 1293.02 1295.07C1298.17 1306.16 1293 1309.23 1289.73 1318.35C1295.83 1324.13 1300.96 1326.22 1308.46 1329.9L1307.31 1331.13C1300.8 1331.22 1296.64 1330.31 1291.68 1334.95C1288.04 1338.35 1286.35 1343.98 1286.47 1348.79C1286.58 1353.29 1289.07 1357 1292.48 1359.89C1308.63 1373.58 1405.85 1383.5 1429.45 1384.95L1428.6 1389.8C1418.21 1387.27 1405.82 1388.16 1395.73 1386.43C1363.97 1380.99 1327.52 1376.89 1296.45 1369.16C1295.81 1368.64 1295.16 1368.11 1294.52 1367.57C1269.33 1346.01 1289.26 1343.86 1289.15 1325.66C1289.04 1311.39 1270.37 1311.82 1293.32 1289.24C1278.13 1273.61 1279.91 1265.77 1292.27 1249.5C1282.06 1247.6 1229.12 1236.91 1222.35 1239.75C1221.25 1237.32 1221.91 1236.76 1222.37 1233.62Z" fill="#050505"/>
<path d="M1293.02 1295.07C1298.17 1306.16 1293 1309.23 1289.73 1318.35C1284.48 1308.72 1286.28 1303.23 1293.02 1295.07Z" fill="#F3C2A0"/>
<path d="M1212.28 1184.63C1231.95 1182.5 1306.52 1193.08 1329.88 1196.26C1338.38 1197.79 1368.91 1203.29 1376.96 1203.63C1383.07 1205.67 1397.13 1207.9 1404.69 1209.52C1412.11 1211.11 1429.23 1216.88 1434.45 1217.5C1434.08 1220.18 1434.48 1219.61 1433.26 1221.8C1387.08 1205.69 1311.63 1198.89 1262.1 1191.81C1245.44 1189.43 1218.9 1189.77 1203.44 1187.14C1206.92 1184.88 1207.09 1188.19 1212.28 1184.63Z" fill="#050505"/>
<path d="M1185.05 1225.62C1183.49 1217 1183.6 1202.64 1193.16 1198.52C1202.86 1201.22 1198.14 1221.92 1197.11 1229.11C1193.09 1227.97 1189.06 1226.8 1185.05 1225.62Z" fill="#F3C2A0"/>
<path d="M1179.35 1222.9C1180.81 1210.72 1180.84 1195.6 1196.25 1193.66C1208.86 1197.73 1201.46 1219.13 1202.03 1229.63L1200.47 1230.83L1197.11 1229.11C1198.14 1221.92 1202.86 1201.22 1193.16 1198.52C1183.6 1202.64 1183.49 1217 1185.05 1225.62C1182.84 1226.79 1183.99 1226.52 1181.53 1226.16L1179.35 1222.9Z" fill="#19191B"/>
<path d="M1260.77 1209.53C1262.81 1210.47 1262.16 1210.12 1263.83 1211.66C1264.96 1216.82 1263.79 1222.85 1263.11 1228.18C1262.25 1227.84 1261.1 1227.05 1260.27 1226.54C1258.69 1220.46 1259.45 1215.62 1260.77 1209.53Z" fill="#242425"/>
<path d="M834.753 1322.99C858.745 1327.04 888.789 1334 911.582 1337.28C908.625 1340.03 899.174 1402.42 897.261 1411.95C881.481 1490.62 869.014 1570.73 851.775 1649.04C849.917 1658.31 845.446 1685.77 841.864 1691.86L839.804 1689.41C837.845 1690.51 837.516 1692.16 836.627 1694.28C836.818 1691.06 837.912 1689.32 838.019 1686.43C838.704 1667.78 837.681 1648.91 837.24 1630.31L835.892 1541.69C834.289 1508.5 835.031 1468.58 834.59 1434.69C834.191 1404.04 831.986 1352.45 834.753 1322.99Z" fill="#050505"/>
<path d="M835.892 1541.69C836.085 1541.98 838.059 1544.97 838.059 1544.97C839.263 1581.92 838.743 1618.83 841.499 1655.78C841.918 1661.4 842.039 1667.16 841.988 1672.79C845.571 1663.88 846.684 1653.27 851.774 1649.04C849.917 1658.31 845.445 1685.77 841.863 1691.87L839.804 1689.41C837.845 1690.51 837.515 1692.16 836.627 1694.28C836.817 1691.06 837.912 1689.32 838.018 1686.43C838.704 1667.78 837.681 1648.91 837.239 1630.31L835.892 1541.69Z" fill="#050505"/>
<path d="M1222.34 1239.75C1229.12 1236.91 1282.06 1247.6 1292.27 1249.5C1279.91 1265.77 1278.13 1273.61 1293.32 1289.24C1270.37 1311.82 1289.04 1311.39 1289.15 1325.66C1289.26 1343.86 1269.33 1346.01 1294.52 1367.57C1295.16 1368.11 1295.8 1368.64 1296.45 1369.16C1327.52 1376.89 1363.97 1380.99 1395.73 1386.43C1405.82 1388.16 1418.21 1387.27 1428.6 1389.8C1434.18 1397.62 1461.41 1405.17 1471.8 1409.73C1427 1412.06 1380.53 1417.25 1335.57 1420.01C1319.24 1421.02 1289.51 1425.04 1274.56 1423.49C1266.9 1418.48 1266.15 1418.23 1259.62 1411.64C1257.09 1393.18 1247.77 1359.8 1243.73 1340.68C1236.62 1307.13 1229.63 1273.24 1222.34 1239.75Z" fill="#050505"/>
<path d="M1527.26 1142.66L1530.25 1141.38C1530.71 1141.65 1564.42 1197.72 1567.09 1203.19C1566.91 1202.84 1571.15 1224.15 1572.44 1227.98C1585.7 1230 1598.79 1232.92 1611.85 1234.82C1614.31 1227.72 1626.11 1197.36 1632.47 1194.98C1633.47 1199.11 1618.11 1230.12 1615.05 1235.78C1652.52 1240.46 1704.49 1251.54 1742.32 1258.59C1782.39 1265.93 1822.36 1273.76 1862.22 1282.05C1897.66 1289.41 1942.26 1299.03 1975.8 1311.93C2033.98 1276.56 2183.13 1146.58 2253.21 1162.45C2254.81 1162.82 2256.39 1163.21 2257.98 1163.62L2256.66 1163.83C2243.6 1165.93 2229.02 1164.8 2216.02 1168.85C2130.57 1195.43 2054.08 1267.2 1980.88 1313.75C1991.43 1317.44 2043.95 1338.56 2047.96 1345.78L2046.93 1346.96C2041.78 1345.98 2014.42 1331.65 2007.13 1328.25C1987.79 1319.2 1963.59 1313.87 1945.18 1304.75C1960.8 1319.68 2000.29 1362.55 2001.25 1382.91C1999.17 1382.2 1990.28 1366.51 1988.85 1363.87C1975.39 1338.93 1957.05 1323.73 1939.16 1303.8C1915.86 1300.17 1885.98 1291.25 1861.49 1286.29C1791.98 1272.18 1722.3 1258.87 1652.47 1246.34L1599.34 1236.86C1592.91 1235.71 1576.52 1232.5 1570.71 1232.19C1566.1 1230.98 1562.66 1230.4 1558.01 1229.64C1546.13 1227.08 1522.95 1224.55 1512.65 1220.98L1511.7 1218.33C1515.15 1218.15 1522.31 1217.76 1525.17 1219.56L1532.31 1220.71C1530.12 1207.95 1524.32 1190.95 1523.56 1178.21C1523.4 1167.61 1527.21 1158.15 1527.26 1142.66Z" fill="#E0E2EA"/>
<path d="M1523.56 1178.21C1527.14 1178.41 1536.93 1176.95 1538.9 1177.92C1541.02 1182.17 1541.59 1184.51 1542.86 1188.98L1543.84 1189.08L1544.61 1185.21C1548.4 1194.28 1551.97 1214.31 1555.26 1224.92C1547.75 1223.51 1539.82 1221.88 1532.31 1220.71C1530.12 1207.95 1524.32 1190.95 1523.56 1178.21Z" fill="#050505"/>
<path d="M1523.56 1178.21C1523.4 1167.61 1527.21 1158.15 1527.26 1142.66C1533.3 1150.32 1542.12 1175.62 1544.61 1185.21L1543.84 1189.08L1542.86 1188.98C1541.59 1184.51 1541.02 1182.17 1538.9 1177.92C1536.93 1176.95 1527.14 1178.41 1523.56 1178.21Z" fill="#110F24"/>
<path d="M1554.01 1195.35C1558.59 1198.87 1558.05 1208.8 1560.81 1215.15C1562.82 1219.75 1563.8 1222.11 1566.32 1226.73C1563.43 1226.8 1563.8 1226.66 1560.96 1226C1555.53 1220.81 1554.7 1202.69 1554.01 1195.35Z" fill="#6E6D71"/>
<path d="M604.436 1278.51C604.743 1278.31 607.896 1276.25 607.896 1276.25C688.462 1289.51 768.477 1306.34 848.798 1320.98C948.337 1339.13 1047.71 1358.03 1147.34 1375.65C1150.95 1376.28 1157.25 1377.49 1159.64 1380.25L1159.22 1381.38C1152.39 1382.37 1130.37 1377.18 1122.37 1375.7L1034.34 1359.64C1023.13 1357.58 988.482 1349.22 979.623 1353.09L978.447 1355.38C982.195 1362.44 993.223 1376.67 998.68 1384.12C1005.65 1393.63 1013.65 1406.47 1020.67 1415.45C1005.15 1442.46 989.334 1469.31 973.218 1495.99C969.993 1501.31 948.931 1535.46 947.485 1539.78C944.033 1544.77 942.274 1547.09 939.826 1552.63C937.308 1555.44 923.541 1579.22 920.847 1583.64C906.421 1607.37 893.522 1632.28 877.936 1655.28C874.836 1659.86 872.719 1669.52 867.03 1669.96L865.858 1668.37C868.543 1664.8 879.054 1645.98 882.366 1640.46C896.584 1616.94 910.618 1593.32 924.465 1569.59C952.942 1521.3 989.91 1463.51 1015.31 1415.3C1010.76 1408.25 972.673 1355.96 972.201 1354.1L974.908 1350.51C971.564 1346.51 919.5 1338.29 911.582 1337.28C888.789 1334 858.745 1327.04 834.752 1322.99C824.427 1320.26 807.283 1317.59 796.341 1315.5L728.643 1302.36C710.487 1319.36 687.469 1331.35 669.141 1350.01C676.887 1363.18 685.34 1383.22 691.83 1397.4C701.984 1419.33 712.268 1441.2 722.682 1463.02C751.407 1523.55 780.68 1583.97 810.524 1643.97C812.113 1647.16 814.704 1653.39 814.373 1656.87C799.592 1644.36 741.953 1506.32 726.298 1480.68C705.104 1445.96 686.997 1385.3 664.661 1350.21L663.98 1349.16C681.042 1332.36 704.586 1316.46 724.033 1301.38C686.661 1296.05 647.178 1285.55 610.231 1280.6L604.436 1278.51Z" fill="#E0E2EA"/>
<path d="M768.453 1031.02C775.652 1034.54 770.118 1049.18 773.44 1058.2C775.352 1063.35 777.649 1067.25 780.304 1072.06C763.965 1070.38 734.412 1064.13 717.368 1060.99C720.795 1055.41 723.296 1051.25 726.154 1045.4L725.232 1043.34C729.526 1038.47 758.286 1035.86 768.453 1031.02Z" fill="#050505"/>
<path d="M679.222 1050.47C679.827 1050.45 685.63 1050.13 685.963 1050.17C696.537 1051.3 715.071 1043.56 723.307 1043.22L725.233 1043.34L726.155 1045.4C723.297 1051.25 720.796 1055.41 717.369 1060.99C734.413 1064.13 763.966 1070.38 780.305 1072.06C777.65 1067.25 775.352 1063.35 773.441 1058.2L775.734 1057.79C777.997 1060.03 795.97 1077.75 796.488 1079.11C795.783 1079.62 795.847 1079.69 794.462 1079.44C742.692 1070.02 690.806 1060.61 639.2 1050.4C638.149 1049.32 637.301 1048.45 636.656 1047.78C649.334 1050.39 666.329 1052.33 679.222 1050.47Z" fill="#050505"/>
<path d="M679.222 1050.47C679.827 1050.45 685.63 1050.13 685.963 1050.17C696.537 1051.3 715.071 1043.56 723.307 1043.22C719.157 1048.11 715.733 1054.47 712.478 1060.06C699.949 1058.02 694.853 1057.37 683.007 1052.69L687.43 1052.96C684.535 1050.48 683.329 1050.79 679.222 1050.47Z" fill="#050505"/>
<path d="M845.757 1085.09C848.698 1085.69 854.683 1086.87 856.459 1089.31C861.848 1093.5 916.416 1111.43 926.156 1118.24C928.852 1120.12 934.664 1120.62 937.949 1124.49L936.888 1126C929.489 1124.04 913.337 1116.44 905.23 1113.25C888.9 1106.81 871.784 1100.68 855.836 1093.6C869.043 1106.98 920.331 1174.14 926.033 1190.01C915.348 1181.11 909.697 1168.51 901.26 1158.71C890.375 1146.04 867.017 1107.88 855.073 1099.52C853.919 1103 853.589 1105.7 853.007 1109.29L851.732 1109.79C846.853 1103.01 852.96 1096.28 843.353 1088.02L845.757 1085.09Z" fill="#E0E2EA"/>
<path d="M836.627 1694.28C837.516 1692.16 837.846 1690.51 839.805 1689.41L841.864 1691.86C838.631 1715.96 840.098 1770.67 840.115 1797H835.692C835.536 1762.76 835.848 1728.52 836.627 1694.28Z" fill="#E0E2EA"/>
<path d="M824.05 1061.59C831.266 1072.23 835.821 1076.7 845.757 1085.09L843.353 1088.02C837.162 1087.25 818.774 1084.85 814.498 1081.39L814.936 1078.49C816.59 1076.74 821.665 1065.58 824.05 1061.59Z" fill="#FCFDFD"/>
<path d="M1949.23 1094.22C1952.83 1094.3 1955.06 1094.43 1958.63 1094.89C1944.89 1102.39 1861.64 1097.1 1852.69 1081.38L1855.08 1079.95C1881.13 1092.53 1899.03 1095.24 1928.31 1094.91C1931.87 1094.87 1947.45 1094.04 1949.23 1094.22Z" fill="#110F24"/>
<path d="M1171.8 1203.46L1170.17 1202.57C1170.72 1191.38 1185.78 1181.83 1196.29 1188.55C1184.66 1192.12 1179.59 1193.71 1171.8 1203.46Z" fill="#050505"/>
<path d="M1558.01 1229.64C1562.66 1230.4 1566.1 1230.98 1570.71 1232.19C1566.08 1236.88 1553.64 1235.34 1550.04 1231.22C1551.92 1229.29 1554.58 1229.83 1558.01 1229.64Z" fill="#19191B"/>
<path d="M947.485 1539.78C949.384 1542.57 948.92 1544.22 948.786 1547.61C946.304 1551.59 947.662 1550.54 943.69 1552.64L939.826 1552.63C942.274 1547.09 944.033 1544.77 947.485 1539.78Z" fill="#110F24"/>
<path d="M1917.08 1549.95C1927.54 1552.53 1948.89 1553.01 1959.92 1552.53C2041.05 1548.89 2119.52 1499.44 2184.76 1455.74C2193.94 1449.59 2229.11 1421.04 2236.1 1419.6C2229.86 1429.12 2189.91 1457.75 2179.07 1464.91C2112.13 1509.15 2028.87 1559.68 1945.33 1557.5C1899.83 1556.33 1842.52 1539.97 1798.68 1527.09C1751.08 1513.11 1703.86 1497.94 1657.06 1481.58C1638.67 1475.25 1620.12 1468.93 1602.19 1461.46C1596.96 1459.28 1580.97 1456.52 1579.17 1450.87C1588.79 1449.99 1734.08 1505.46 1759.65 1511.07C1799.9 1519.91 1849.74 1541.08 1893.51 1546.01L1894.37 1546.09C1900.67 1543.12 1922.61 1545.8 1930.3 1547.01L1931.15 1548.79L1932.78 1548.08L1931.95 1547.44L1932.57 1548.51C1926.93 1550.9 1923 1549.53 1917.08 1549.95Z" fill="#E0E2EA"/>
<path d="M1894.37 1546.09C1900.67 1543.12 1922.61 1545.8 1930.3 1547.01L1931.15 1548.79L1932.78 1548.08L1931.95 1547.44L1932.57 1548.51C1926.93 1550.9 1923 1549.53 1917.08 1549.95C1911.77 1550 1900.05 1547.29 1894.37 1546.09Z" fill="#19191B"/>
<path d="M1551.37 793.157C1537.99 775.501 1526.85 758.461 1520.25 737.1L1521.14 735.644L1523.13 736.147C1529.55 747.812 1532.35 759.014 1539.61 770.025C1550.52 786.538 1562.43 802.531 1578 815.211C1581.78 818.291 1587.33 821.005 1589.97 824.935C1583.03 828.311 1530.36 804.636 1527.96 799.106C1531.49 798.392 1535.93 801.145 1539.52 802.677C1546.59 800.069 1548.1 799.642 1551.37 793.157Z" fill="#E0E2EA"/>
<path d="M1551.37 793.157C1559.42 802.485 1566.6 809.858 1575.33 818.622C1564.07 813.909 1550.12 808.427 1539.52 802.677C1546.59 800.069 1548.1 799.642 1551.37 793.157Z" fill="#19191B"/>
<path d="M1019.79 1049.46L1022.85 1049.89C1027.46 1052.37 1039.4 1081.33 1042.82 1088.7C1053.29 1088.7 1114.33 1086.93 1118.84 1089.6C1113.95 1094.19 1084.35 1092.45 1075.44 1092.44C1062.74 1092.45 1000.9 1095.29 995.34 1091.93L995.741 1090.65C1003.81 1088.09 1028.19 1088.78 1038.08 1088.82C1031.98 1075.5 1026.34 1062.61 1019.79 1049.46Z" fill="#E0E2EA"/>
<path d="M1128.27 1225.27L1129.57 1227.31C1126.73 1231.77 1122.17 1234.92 1117.96 1238.36C1122.8 1241.08 1124.51 1241.77 1127.96 1246.28L1127.62 1247.85C1124.82 1247.97 1124.04 1247.17 1121.67 1245.71C1114.66 1240.04 1111.94 1242.9 1104.46 1237.81L1104.29 1236.5C1119.29 1233.8 1112.96 1237.74 1128.27 1225.27Z" fill="#E0E2EA"/>
<path d="M2209.92 1302.11L2211.92 1303.83C2213.43 1311.79 2206.7 1324.85 2202.26 1331.48L2201.34 1330.63C2200.39 1327.58 2208.23 1307.43 2209.92 1302.11Z" fill="#E0E2EA"/>
<path d="M1511.59 900.118C1515.39 902.004 1527.03 912.629 1528.32 916.838C1522.08 915.245 1510.85 907.29 1511.59 900.118Z" fill="#E0E2EA"/>
<path d="M1518.27 1343.95C1523.93 1345.01 1529.73 1356.5 1531.67 1361.61L1528.31 1360.72C1522.84 1355.66 1520.89 1350.63 1518.27 1343.95Z" fill="#050505"/>
<path d="M1518.06 887.364C1521.4 887.917 1532.63 898.623 1534.01 901.616C1526.63 902.245 1519.7 893.698 1518.06 887.364Z" fill="#E0E2EA"/>
<path d="M1413.28 716.182L1414.05 718.563C1412.44 722.869 1407.23 728.422 1404.07 732.187C1402.22 729.965 1402.66 731.197 1402.64 728.393C1406.3 722.633 1408.27 720.95 1413.28 716.182Z" fill="#E0E2EA"/>
<path d="M2226.19 1314.74C2227.35 1315.58 2227.71 1316.14 2228.66 1317.21C2228.23 1322.45 2225.95 1325.85 2223.44 1330.45L2221.14 1328.34C2221.17 1323.41 2223.81 1319.06 2226.19 1314.74Z" fill="#E0E2EA"/>
<path d="M1524.62 1307.04C1530.79 1307.42 1536.01 1311.99 1537.74 1317.7C1531.89 1316.6 1526.85 1312.39 1524.62 1307.04Z" fill="#050505"/>
<path d="M691.774 569.175C678.527 555.135 677.196 543.281 686.009 526.222C697.96 503.091 720.769 480.692 746.119 472.01C758.848 467.65 780.329 467.668 793.137 472.295C799.197 474.585 810.25 478.617 816.219 479.729C833.208 482.896 849.862 477.35 867.619 479.561C893.724 482.813 909.368 501.777 930.738 513.781C939.386 518.638 952.174 521.916 961.82 526.901L962.224 528.533C959.876 530.954 959.103 531.876 957.085 534.572C956.979 541.858 969.138 546.929 974.659 553.589C991.392 573.773 1006.51 601.666 1018.95 624.402C1015.77 630.983 1012.74 633.904 1009.47 642.086C1001.93 661.004 1005.29 678.466 1000.51 697.265C1004.48 697.55 1009.82 698.005 1013.51 699.163C1022.35 701.902 1029.67 708.028 1033.8 716.137C1047.68 743.07 1028.62 778.765 1006.23 795.478C1002.9 797.96 990.533 803.178 986.039 805.321C986.754 828.353 985.348 847.169 985.442 868.653L984.191 868.978L982.858 866.092C980.651 870.328 979.391 876.279 976.796 881.524C965.816 903.704 947.885 915.96 924.141 923.094C918.524 924.782 899.109 929.766 893.377 929.245C874.826 931.225 843.377 931.665 825.293 926.994C821.659 927.417 804.133 924.636 800.103 923.774L794.572 922.185C792.437 922.435 781.51 920.15 776.883 919.808C774.661 919.231 774.99 919.054 772.981 917.537C768.158 913.2 745.302 907.739 737.563 904.642C705.827 891.945 676.712 874.065 670.295 838.658C656.852 764.491 665.572 688.779 679.913 615.416C682.837 600.512 686.154 583.212 691.774 569.175Z" fill="#050505"/>
<path d="M825.293 926.994C830.464 923.32 856.425 927.096 863.988 927.256C870.675 927.395 888.717 925.958 893.378 929.245C874.827 931.225 843.377 931.665 825.293 926.994Z" fill="#050505"/>
<path d="M794.572 922.184C799.416 919.327 809.155 916.634 813.03 921.714C810.101 924.251 808.51 924.058 804.299 923.821L802.792 923.725C801.101 923.626 801.855 923.626 800.103 923.774L794.572 922.184Z" fill="#050505"/>
<path d="M695.119 571.412C708.261 572.997 723.925 572.046 735.9 573.858C749.707 575.946 758.501 583.17 774.971 583.065C797.112 582.924 818.253 573.797 839.592 575.654C861.396 577.55 881.748 591.876 903.416 596.778C915.385 599.485 931.971 598.041 941.695 604.161C957.402 614.046 956.93 636.701 960.327 653.337L961.105 644.87C967.793 656.319 966.108 681.496 964.103 695.06L963.144 695.463C962.822 690.303 963.813 687.348 961.513 683.635C960.269 716.654 958.065 749.633 954.902 782.531C937.7 800.972 924.956 788.977 903.706 789.305C828.352 790.468 743.187 776.33 668.816 790.878C666.813 710.935 676.064 648.532 695.119 571.412Z" fill="#713D29"/>
<path d="M960.327 653.337L961.105 644.87C967.793 656.319 966.108 681.496 964.103 695.06L963.144 695.462C962.822 690.303 963.813 687.348 961.513 683.635C960.488 673.464 960.487 663.545 960.327 653.337Z" fill="#110F24"/>
<path d="M858.877 723.953C833.948 710.852 847.338 709.085 836.772 696.81C834.184 696.228 832.128 695.719 829.582 694.997L828.411 693.128C830.665 690.323 834.382 690.869 838.101 690.733C847.901 680.07 854.224 671.378 870.387 670.126C890.704 668.553 911.95 686.547 917.044 704.844L916.39 707.464C916.053 707.603 915.713 707.736 915.379 707.882C896.18 716.235 906.615 734.815 865.532 726.689L858.877 723.953Z" fill="#19191B"/>
<path d="M857.671 719.36C851.904 715.216 845.213 709.916 842.567 703.269C844.042 695.125 855.926 696.951 862.538 697.973C875.52 699.98 892.73 701.769 904.936 705.873C909.014 718.987 886.314 725.722 875.025 723.886C871.333 726.807 870.738 726.054 865.531 726.688L858.876 723.953L857.671 719.36Z" fill="#FCFDFD"/>
<path d="M857.671 719.361C857.864 711.814 859.96 703.95 869.68 704.936C873.192 705.273 876.388 707.057 878.469 709.838C880.118 712.055 880.665 714.878 879.959 717.53C879.27 720.049 876.998 722.27 875.025 723.886C871.333 726.807 870.738 726.055 865.531 726.688L858.876 723.953L857.671 719.361Z" fill="#09080C"/>
<path d="M862.305 675.979C889.457 673.681 899.53 680.665 912.814 703.287C906.801 701.888 900.808 700.404 894.84 698.834C875.73 695.69 861.479 694.344 842.602 692.019C848.939 683.495 852.037 679.558 862.305 675.979Z" fill="#FCFDFD"/>
<path d="M717.612 703.037C699.638 693.577 701.022 677.527 698.222 675.821C695.04 673.883 691.302 675.563 688.938 672.279L689.981 670.275C690.717 670.188 699.507 669.904 698.849 670.356C704.579 666.421 708.236 659.003 714.266 655.455C730.997 645.612 748.496 651.133 762.667 662.202C769.332 667.408 776.395 677.706 777.959 686.073L777.328 688.005C774.814 688.974 774.682 688.718 771.923 688.462C764.095 696.184 760.371 708.961 742.903 709.391C739.34 709.479 730.055 707.802 726.851 706.142C722.79 705.228 721.49 704.652 717.612 703.037Z" fill="#19191B"/>
<path d="M719.777 699.531C713.724 696.418 701.649 686.243 704.078 678.81C712.11 673.269 755.331 682.449 765.074 686.613C768.051 699.1 748.236 704.643 738.384 704.846C734.071 707.964 733.425 705.361 726.85 706.142C722.789 705.228 721.49 704.652 717.611 703.037L719.777 699.531Z" fill="#FCFDFD"/>
<path d="M719.777 699.531C718.521 692.242 719.17 685.596 728.62 685.097C732.276 684.917 735.854 686.173 738.554 688.587C744.128 693.665 742.26 699.531 738.384 704.846C734.072 707.964 733.426 705.362 726.851 706.142C722.789 705.229 721.49 704.652 717.611 703.037L719.777 699.531Z" fill="#09080C"/>
<path d="M729.637 654.571C750.517 653.235 763.705 666.302 772.363 683.034C765.575 681.929 757.517 679.686 750.387 678.284C743.116 675.638 712.354 672.137 703.814 671.546C712.357 660.336 716.351 658.678 729.637 654.571Z" fill="#FCFDFD"/>
<path d="M842.391 656.351C829.443 651.255 822.165 630.81 838.772 627.956C866.672 623.16 927.68 634.686 946.677 657.035L947.766 662.17L946.554 663.857C933.483 666.372 906.682 661.717 892.212 661.487C879.795 661.289 852.514 661.564 842.391 656.351Z" fill="#050505"/>
<path d="M842.391 656.351C853.592 650.547 930.395 667.182 946.677 657.035L947.766 662.17L946.554 663.857C933.483 666.372 906.682 661.717 892.212 661.487C879.795 661.289 852.514 661.565 842.391 656.351Z" fill="#19191B"/>
<path d="M713.383 609.471C726.24 607.49 783.887 610.382 790.572 627.159C794.782 637.725 778.932 646.533 768.802 648.619C758.093 648.519 690.865 628.188 687.493 621.196C690.273 613.438 705.78 611.193 713.383 609.471Z" fill="#050505"/>
<path d="M801.307 658.482C808.134 665.672 769.751 745.835 772.381 760.078C773.865 768.119 788.001 774.302 792.668 776.569L792.859 778.425L790.287 779.458C782.75 777.251 768.483 774.296 764.176 768.466C764.72 760.911 797.15 663.437 801.307 658.482Z" fill="#19191B"/>
<path d="M703.312 725.938L707.19 726.789C711.25 731.102 714.636 736.654 715.633 742.483L712.547 741.651C708.463 737.56 704.884 731.437 703.312 725.938Z" fill="#242425"/>
<path d="M879.382 742.195C884.81 744.981 890.893 752.559 891.341 758.641C885.469 756.735 878.672 748.439 879.382 742.195Z" fill="#242425"/>
<path d="M857.792 739.574C863.429 741.705 869.408 749.042 869.572 755.009C864.053 753.898 857.746 745.229 857.792 739.574Z" fill="#19191B"/>
<path d="M720.71 726.332C727.017 727.397 732.166 734.072 731.88 740.217C727.92 738.57 720.741 730.699 720.71 726.332Z" fill="#242425"/>
<path d="M988.995 719.799C990.4 713.247 990.624 706.691 996.852 702.902C1008.18 696.013 1023.45 708.458 1028.49 718.187C1044.42 748.966 1018.26 785.84 989.645 798.891C988.713 799.316 987.819 799.783 986.943 800.265C986.927 785.836 986.048 736.431 988.661 725.461C991.017 722.097 987.621 725.498 988.995 719.799Z" fill="#713D29"/>
<path d="M988.661 725.461C991.018 722.097 987.621 725.498 988.995 719.799C997.253 723.958 1004.86 727.617 1008.13 736.765C1009.95 741.84 1010.72 752.599 1007.71 757.355C1001.9 755.155 1007.18 741.284 1002.99 736.079C1002.64 735.105 1002.3 734.13 1001.96 733.154C996.865 728.981 995.198 727.069 988.661 725.461Z" fill="#19191B"/>
<path d="M823.59 809.126C836.316 808.476 885.675 804.237 891.579 815.242C890.47 819.131 890.929 817.853 886.891 820.836C869.695 820.515 852.683 820.438 835.493 820.916C829.218 821.091 820.949 821.676 818.236 815.458C819.986 810.987 819.276 812.46 823.59 809.126Z" fill="#FCFDFD"/>
<path d="M819.68 532.061C826.08 527.463 831.168 525.456 838.635 523.215L845.789 523.982L842.114 526.12C846.961 530.735 853.797 524.937 860.019 529.823C866.976 529.111 875.114 527.816 881.814 529.192L882.816 530.298C868.087 536.818 848.872 530.813 827.988 541.483C812.185 549.556 807.055 565.363 799.15 566.403C801.223 554.529 823.544 540.544 826.521 536.858L825.052 533.934C822.869 532.902 821.978 532.713 819.68 532.061Z" fill="#E0E2EA"/>
<path d="M819.68 532.061C826.079 527.463 831.168 525.456 838.634 523.215L845.788 523.982L842.113 526.12C846.96 530.735 853.797 524.937 860.018 529.823C844.744 531.797 840.846 531.319 826.521 536.858L825.052 533.934C822.868 532.902 821.977 532.713 819.68 532.061Z" fill="#19191B"/>
<path d="M921.179 573.301C913.494 576.334 912.498 581.354 903.333 585.653L902.497 585.002C905.503 580.362 907.524 577.506 911.925 573.877C921.612 565.89 949.126 566.194 961.085 567.95L961.689 569.109C958.272 572.08 954.64 572.417 950.083 573.51C948.476 574.289 946.69 574.958 944.874 574.667C937.129 573.423 925.981 582.692 922.152 573.921L921.179 573.301Z" fill="#E0E2EA"/>
<path d="M921.179 573.3C932.328 569.272 938.289 571.719 950.083 573.51C948.476 574.289 946.69 574.958 944.874 574.667C937.129 573.423 925.981 582.692 922.152 573.921L921.179 573.3Z" fill="#110F24"/>
<path d="M819.68 532.061C816.087 534.857 814.24 536.831 809.77 537.768L808.707 536.805C819.53 521.988 851.69 512.245 868.903 518.281L869.428 519.837C866.243 521.19 848.429 521.053 838.634 523.214C831.168 525.456 826.079 527.463 819.68 532.061Z" fill="#E0E2EA"/>
<path d="M737.154 510.149C739.283 510.165 738.233 509.991 740.203 511.177C737.823 515.032 726.523 519.018 721.352 523.927C710.801 533.946 708.957 540.133 708.202 554.014C704.773 553.044 706.114 553.969 704.027 551.168C703.186 530.007 719.407 518.355 737.154 510.149Z" fill="#E0E2EA"/>
<path d="M783.618 513.471C785.768 513.357 784.972 513.346 787.125 514.132C784.096 522.136 751.231 516.075 747.083 549.1C745.171 549.068 745.613 548.996 743.721 548.289C738.849 528.382 768.128 516.702 783.618 513.471Z" fill="#E0E2EA"/>
<path d="M931.27 551.993L934.509 552.34L935.246 554.046C928.587 559.37 910.135 556.009 896.764 567.397C896.193 567.914 895.589 567.842 894.572 568.044L893.688 566.246C896.766 556.486 921.876 553.292 931.27 551.993Z" fill="#E0E2EA"/>
<path d="M953.018 875.852C955.263 877.126 954.384 876.25 955.53 878.744C954.303 882.828 949.047 892.242 946.786 897.514C943.921 895.599 944.719 896.842 943.851 893.999C945.57 888.048 949.655 881.127 953.018 875.852Z" fill="#E0E2EA"/>
<path d="M753.436 863.731C755.102 864.762 754.346 864.217 755.396 866.315C753.784 872.24 750.524 876.393 747.082 881.519L745.125 879.481C745.622 874.439 750.459 868.056 753.436 863.731Z" fill="#E0E2EA"/>
<path d="M933.282 812.851L935.969 814.048C940.083 819.237 942.209 823.652 941.896 830.281C937.562 827.72 933.092 817.855 933.282 812.851Z" fill="#E0E2EA"/>
<path d="M936.836 873.522C937.601 873.827 938.675 874.583 939.418 875.05C938.422 880.389 935.147 884.759 932.232 889.514L930.025 887.254C930.87 882.514 934.257 877.817 936.836 873.522Z" fill="#050505"/>
<path d="M947.058 806.839C948.335 807.144 949.769 807.68 951.037 808.102C953.991 812.613 954.535 815.716 955.905 820.808C954.956 820.817 953.544 820.539 952.551 820.391C949.459 816.816 948.447 811.512 947.058 806.839Z" fill="#E0E2EA"/>
<path d="M770.505 876.211L772.193 878.254C772.179 882.255 769.651 885.523 767.526 889.157C766.835 888.373 765.945 886.926 765.332 886.012C765.827 881.641 767.805 879.797 770.505 876.211Z" fill="#E0E2EA"/>
</svg>

